<svg xmlns="http://www.w3.org/2000/svg" xmlns:xlink="http://www.w3.org/1999/xlink" width="1200" zoomAndPan="magnify" viewBox="0 0 900 472.499986" height="630" preserveAspectRatio="xMidYMid meet" version="1.0"><path fill="#111827" d="M 170.269531 295.035156 L 170.269531 326.617188 L 47.097656 326.617188 L 47.097656 152.183594 L 83.535156 152.183594 L 83.535156 295.035156 Z M 170.269531 295.035156 " fill-opacity="1" fill-rule="nonzero"/><path fill="#111827" d="M 236.59375 177.691406 C 227.683594 177.691406 220.394531 179.597656 214.722656 183.40625 C 209.054688 187.210938 206.222656 192.269531 206.222656 198.582031 C 206.222656 203.28125 207.558594 207.128906 210.230469 210.125 C 212.902344 213.121094 218.449219 215.59375 226.871094 217.535156 L 267.929688 227.492188 C 284.777344 231.546875 296.480469 237.375 303.039062 244.988281 C 309.597656 252.597656 312.878906 262.316406 312.878906 274.140625 C 312.878906 286.613281 309.839844 297.140625 303.765625 305.726562 C 297.691406 314.308594 289.472656 320.707031 279.105469 324.914062 C 268.738281 329.125 256.996094 331.230469 243.878906 331.230469 C 220.878906 331.230469 202.902344 326.375 189.945312 316.660156 C 176.988281 306.941406 170.1875 292.363281 169.539062 272.925781 L 204.523438 272.925781 C 204.847656 281.835938 208.164062 288.761719 214.480469 293.703125 C 220.796875 298.636719 229.785156 301.105469 241.449219 301.105469 C 253.273438 301.105469 262.304688 299.246094 268.539062 295.523438 C 274.773438 291.796875 277.890625 286.128906 277.890625 278.515625 C 277.890625 273.65625 276.226562 269.847656 272.90625 267.09375 C 269.589844 264.339844 264.042969 261.832031 256.269531 259.566406 C 248.496094 257.300781 235.539062 254.140625 217.394531 250.089844 C 201.523438 246.527344 190.023438 240.855469 182.898438 233.082031 C 175.773438 225.308594 172.210938 214.699219 172.210938 201.257812 C 172.210938 190.890625 174.679688 181.660156 179.617188 173.566406 C 184.558594 165.46875 192.050781 159.109375 202.09375 154.496094 C 212.136719 149.875 224.527344 147.566406 239.265625 147.566406 C 252.703125 147.566406 264.484375 149.875 274.609375 154.496094 C 284.730469 159.109375 292.625 165.671875 298.292969 174.171875 C 303.964844 182.671875 306.960938 192.59375 307.289062 203.929688 L 272.304688 203.929688 C 270.683594 186.4375 258.777344 177.691406 236.59375 177.691406 Z M 236.59375 177.691406 " fill-opacity="1" fill-rule="nonzero"/><path fill="#111827" d="M 430.273438 207.265625 L 430.273438 220.804688 L 377.457031 220.804688 L 377.457031 146.035156 L 393.085938 146.035156 L 393.085938 207.265625 Z M 430.273438 207.265625 " fill-opacity="1" fill-rule="nonzero"/><path fill="#111827" d="M 475.804688 222.78125 C 468.859375 222.78125 462.675781 221.304688 457.253906 218.355469 C 451.839844 215.40625 447.585938 210.980469 444.492188 205.078125 C 441.402344 199.175781 439.859375 191.957031 439.859375 183.417969 C 439.859375 175.019531 441.386719 167.851562 444.441406 161.914062 C 447.503906 155.976562 451.742188 151.515625 457.15625 148.53125 C 462.570312 145.542969 468.789062 144.050781 475.804688 144.050781 C 482.820312 144.050781 489.035156 145.578125 494.453125 148.636719 C 499.875 151.691406 504.109375 156.171875 507.167969 162.070312 C 510.222656 167.972656 511.75 175.089844 511.75 183.417969 C 511.75 191.886719 510.203125 199.089844 507.109375 205.027344 C 504.023438 210.964844 499.753906 215.40625 494.296875 218.355469 C 488.84375 221.304688 482.679688 222.78125 475.804688 222.78125 Z M 496.121094 183.417969 C 496.121094 175.089844 494.261719 168.652344 490.546875 164.105469 C 486.835938 159.554688 481.886719 157.277344 475.699219 157.277344 C 469.660156 157.277344 464.78125 159.554688 461.0625 164.105469 C 457.347656 168.652344 455.488281 175.089844 455.488281 183.417969 C 455.488281 191.75 457.328125 198.191406 461.007812 202.742188 C 464.691406 207.289062 469.625 209.558594 475.804688 209.558594 C 481.984375 209.558594 486.917969 207.289062 490.59375 202.742188 C 494.277344 198.191406 496.121094 191.75 496.121094 183.417969 Z M 496.121094 183.417969 " fill-opacity="1" fill-rule="nonzero"/><path fill="#111827" d="M 557.796875 157.585938 C 552.035156 157.585938 547.453125 159.84375 544.050781 164.355469 C 540.648438 168.871094 538.945312 175.292969 538.945312 183.621094 C 538.945312 191.472656 540.558594 197.703125 543.789062 202.320312 C 547.015625 206.9375 551.582031 209.242188 557.488281 209.242188 C 561.863281 209.242188 565.472656 208.046875 568.324219 205.65625 C 571.171875 203.257812 573.078125 199.769531 574.050781 195.183594 L 589.679688 195.183594 C 587.941406 204.074219 584.246094 210.898438 578.585938 215.652344 C 572.925781 220.40625 565.789062 222.78125 557.179688 222.78125 C 550.230469 222.78125 544.1875 221.203125 539.042969 218.046875 C 533.902344 214.886719 529.945312 210.351562 527.167969 204.449219 C 524.386719 198.550781 523 191.574219 523 183.523438 C 523 175.46875 524.441406 168.476562 527.324219 162.542969 C 530.207031 156.601562 534.257812 152.035156 539.46875 148.839844 C 544.675781 145.648438 550.683594 144.050781 557.488281 144.050781 C 563.390625 144.050781 568.703125 145.195312 573.425781 147.492188 C 578.152344 149.78125 581.917969 152.921875 584.730469 156.914062 C 587.546875 160.90625 589.195312 165.4375 589.679688 170.507812 L 574.050781 170.507812 C 572.039062 161.894531 566.621094 157.585938 557.796875 157.585938 Z M 557.796875 157.585938 " fill-opacity="1" fill-rule="nonzero"/><path fill="#111827" d="M 651.878906 220.804688 L 647.085938 205.394531 L 619.476562 205.394531 L 614.265625 220.804688 L 597.808594 220.804688 L 624.480469 146.035156 L 642.503906 146.035156 L 668.867188 220.804688 Z M 642.714844 192.472656 L 633.441406 162.898438 L 633.230469 162.898438 L 623.644531 192.472656 Z M 642.714844 192.472656 " fill-opacity="1" fill-rule="nonzero"/><path fill="#111827" d="M 733.765625 207.265625 L 733.765625 220.804688 L 680.949219 220.804688 L 680.949219 146.035156 L 696.578125 146.035156 L 696.578125 207.265625 Z M 733.765625 207.265625 " fill-opacity="1" fill-rule="nonzero"/><path fill="#111827" d="M 402.355469 260.847656 C 398.535156 260.847656 395.410156 261.667969 392.980469 263.296875 C 390.546875 264.925781 389.332031 267.09375 389.332031 269.796875 C 389.332031 271.816406 389.90625 273.46875 391.050781 274.753906 C 392.195312 276.035156 394.574219 277.09375 398.1875 277.925781 L 415.792969 282.199219 C 423.015625 283.933594 428.03125 286.433594 430.84375 289.699219 C 433.660156 292.960938 435.070312 297.121094 435.070312 302.1875 C 435.070312 307.535156 433.765625 312.050781 431.164062 315.734375 C 428.558594 319.410156 425.035156 322.152344 420.589844 323.960938 C 416.144531 325.757812 411.109375 326.660156 405.480469 326.660156 C 395.617188 326.660156 387.902344 324.578125 382.347656 320.410156 C 376.792969 316.246094 373.875 309.996094 373.597656 301.667969 L 388.601562 301.667969 C 388.742188 305.488281 390.164062 308.457031 392.875 310.574219 C 395.578125 312.691406 399.4375 313.75 404.441406 313.75 C 409.507812 313.75 413.378906 312.953125 416.054688 311.355469 C 418.730469 309.757812 420.066406 307.328125 420.066406 304.066406 C 420.066406 301.984375 419.355469 300.351562 417.925781 299.167969 C 416.503906 297.988281 414.125 296.910156 410.789062 295.9375 C 407.457031 294.96875 401.902344 293.617188 394.125 291.878906 C 387.316406 290.347656 382.382812 287.921875 379.328125 284.589844 C 376.273438 281.257812 374.746094 276.710938 374.746094 270.945312 C 374.746094 266.503906 375.804688 262.546875 377.921875 259.074219 C 380.042969 255.605469 383.253906 252.878906 387.558594 250.898438 C 391.867188 248.917969 397.179688 247.929688 403.503906 247.929688 C 409.265625 247.929688 414.316406 248.917969 418.660156 250.898438 C 423 252.878906 426.386719 255.691406 428.816406 259.335938 C 431.246094 262.980469 432.535156 267.234375 432.675781 272.09375 L 417.675781 272.09375 C 416.980469 264.597656 411.875 260.847656 402.355469 260.847656 Z M 402.355469 260.847656 " fill-opacity="1" fill-rule="nonzero"/><path fill="#111827" d="M 480.808594 263.136719 L 480.808594 324.683594 L 465.179688 324.683594 L 465.179688 263.136719 L 442.570312 263.136719 L 442.570312 249.914062 L 503.414062 249.914062 L 503.414062 263.136719 Z M 480.808594 263.136719 " fill-opacity="1" fill-rule="nonzero"/><path fill="#111827" d="M 543.734375 313.4375 C 553.734375 313.4375 558.734375 308.71875 558.734375 299.273438 L 558.734375 249.914062 L 574.679688 249.914062 L 574.679688 299.0625 C 574.679688 307.953125 572.078125 314.777344 566.867188 319.53125 C 561.65625 324.285156 554.015625 326.660156 543.945312 326.660156 C 534.703125 326.660156 527.464844 324.335938 522.222656 319.6875 C 516.980469 315.035156 514.359375 308.195312 514.359375 299.167969 L 514.359375 249.914062 L 530.296875 249.914062 L 530.296875 298.859375 C 530.296875 303.300781 531.492188 306.84375 533.886719 309.484375 C 536.28125 312.121094 539.566406 313.4375 543.734375 313.4375 Z M 543.734375 313.4375 " fill-opacity="1" fill-rule="nonzero"/><path fill="#111827" d="M 655.527344 285.523438 C 655.527344 293.652344 654.242188 300.664062 651.667969 306.566406 C 649.101562 312.46875 645.507812 316.960938 640.882812 320.054688 C 636.265625 323.140625 630.972656 324.683594 625.003906 324.683594 L 592.078125 324.683594 L 592.078125 249.914062 L 625.621094 249.914062 C 632.21875 249.914062 637.761719 251.460938 642.242188 254.550781 C 646.726562 257.640625 650.058594 261.855469 652.246094 267.203125 C 654.433594 272.546875 655.527344 278.652344 655.527344 285.523438 Z M 639.589844 286.566406 C 639.589844 270.738281 634.066406 262.824219 623.019531 262.824219 L 607.390625 262.824219 L 607.390625 311.773438 L 622.921875 311.773438 C 628.058594 311.773438 632.121094 309.515625 635.105469 305.003906 C 638.09375 300.492188 639.589844 294.34375 639.589844 286.566406 Z M 639.589844 286.566406 " fill-opacity="1" fill-rule="nonzero"/><path fill="#111827" d="M 668.132812 249.914062 L 683.757812 249.914062 L 683.757812 324.683594 L 668.132812 324.683594 Z M 668.132812 249.914062 " fill-opacity="1" fill-rule="nonzero"/><path fill="#111827" d="M 733.039062 326.660156 C 726.09375 326.660156 719.910156 325.183594 714.488281 322.234375 C 709.070312 319.285156 704.820312 314.859375 701.726562 308.957031 C 698.636719 303.054688 697.09375 295.835938 697.09375 287.296875 C 697.09375 278.898438 698.621094 271.730469 701.675781 265.796875 C 704.738281 259.855469 708.972656 255.394531 714.390625 252.410156 C 719.804688 249.425781 726.023438 247.929688 733.039062 247.929688 C 740.054688 247.929688 746.269531 249.457031 751.6875 252.515625 C 757.109375 255.574219 761.34375 260.050781 764.402344 265.949219 C 767.457031 271.851562 768.984375 278.96875 768.984375 287.296875 C 768.984375 295.765625 767.4375 302.96875 764.34375 308.90625 C 761.253906 314.84375 756.988281 319.285156 751.53125 322.234375 C 746.078125 325.183594 739.914062 326.660156 733.039062 326.660156 Z M 753.355469 287.296875 C 753.355469 278.96875 751.496094 272.53125 747.78125 267.984375 C 744.070312 263.433594 739.121094 261.15625 732.933594 261.15625 C 726.894531 261.15625 722.015625 263.433594 718.296875 267.984375 C 714.582031 272.53125 712.722656 278.96875 712.722656 287.296875 C 712.722656 295.628906 714.5625 302.070312 718.242188 306.621094 C 721.925781 311.167969 726.855469 313.4375 733.039062 313.4375 C 739.21875 313.4375 744.148438 311.167969 747.828125 306.621094 C 751.511719 302.070312 753.355469 295.628906 753.355469 287.296875 Z M 753.355469 287.296875 " fill-opacity="1" fill-rule="nonzero"/><path fill="#111827" d="M 808.472656 260.847656 C 804.648438 260.847656 801.523438 261.667969 799.09375 263.296875 C 796.664062 264.925781 795.449219 267.09375 795.449219 269.796875 C 795.449219 271.816406 796.019531 273.46875 797.164062 274.753906 C 798.308594 276.035156 800.691406 277.09375 804.304688 277.925781 L 821.910156 282.199219 C 829.132812 283.933594 834.148438 286.433594 836.960938 289.699219 C 839.777344 292.960938 841.183594 297.121094 841.183594 302.1875 C 841.183594 307.535156 839.882812 312.050781 837.277344 315.734375 C 834.671875 319.410156 831.148438 322.152344 826.703125 323.960938 C 822.257812 325.757812 817.222656 326.660156 811.597656 326.660156 C 801.730469 326.660156 794.019531 324.578125 788.464844 320.410156 C 782.90625 316.246094 779.988281 309.996094 779.714844 301.667969 L 794.714844 301.667969 C 794.855469 305.488281 796.28125 308.457031 798.988281 310.574219 C 801.695312 312.691406 805.550781 313.75 810.554688 313.75 C 815.621094 313.75 819.496094 312.953125 822.171875 311.355469 C 824.84375 309.757812 826.183594 307.328125 826.183594 304.066406 C 826.183594 301.984375 825.46875 300.351562 824.042969 299.167969 C 822.621094 297.988281 820.242188 296.910156 816.902344 295.9375 C 813.570312 294.96875 808.015625 293.617188 800.242188 291.878906 C 793.429688 290.347656 788.5 287.921875 785.445312 284.589844 C 782.386719 281.257812 780.859375 276.710938 780.859375 270.945312 C 780.859375 266.503906 781.917969 262.546875 784.035156 259.074219 C 786.15625 255.605469 789.371094 252.878906 793.671875 250.898438 C 797.980469 248.917969 803.296875 247.929688 809.617188 247.929688 C 815.382812 247.929688 820.433594 248.917969 824.773438 250.898438 C 829.117188 252.878906 832.5 255.691406 834.933594 259.335938 C 837.363281 262.980469 838.648438 267.234375 838.792969 272.09375 L 823.789062 272.09375 C 823.09375 264.597656 817.988281 260.847656 808.472656 260.847656 Z M 808.472656 260.847656 " fill-opacity="1" fill-rule="nonzero"/></svg>