<svg xmlns="http://www.w3.org/2000/svg" xmlns:xlink="http://www.w3.org/1999/xlink" width="1200" zoomAndPan="magnify" viewBox="0 0 900 472.499986" height="630" preserveAspectRatio="xMidYMid meet" version="1.0"><path fill="#ffffff" d="M 168.191406 304.480469 L 168.191406 325.375 L 56.195312 325.375 L 56.195312 150.941406 L 79.761719 150.941406 L 79.761719 304.480469 Z M 168.191406 304.480469 " fill-opacity="1" fill-rule="nonzero"/><path fill="#ffffff" d="M 299.136719 201.957031 L 277.03125 201.957031 C 276.542969 190.785156 272.449219 182.082031 264.757812 175.847656 C 257.066406 169.609375 246.742188 166.488281 233.789062 166.488281 C 221.152344 166.488281 211.351562 169.121094 204.386719 174.386719 C 197.425781 179.648438 193.941406 187.222656 193.941406 197.101562 C 193.941406 208.761719 200.824219 216.128906 214.589844 219.207031 L 263.421875 230.378906 C 290.46875 236.535156 303.996094 252.328125 303.996094 277.753906 C 303.996094 294.925781 297.597656 307.921875 284.804688 316.75 C 272.011719 325.574219 255.570312 329.988281 235.484375 329.988281 C 212.808594 329.988281 195.4375 324.847656 183.371094 314.5625 C 171.308594 304.277344 165.277344 289.09375 165.277344 269.011719 L 187.382812 269.011719 L 187.382812 269.5 C 187.382812 282.128906 191.714844 292.011719 200.375 299.136719 C 209.042969 306.261719 220.746094 309.828125 235.484375 309.828125 C 248.441406 309.828125 259.296875 307.519531 268.042969 302.902344 C 276.789062 298.285156 281.160156 290.710938 281.160156 280.183594 C 281.160156 273.382812 279.664062 268.078125 276.667969 264.273438 C 273.671875 260.46875 269.257812 257.472656 263.421875 255.285156 C 257.59375 253.097656 248.6875 250.628906 236.703125 247.875 L 207.304688 241.070312 C 194.996094 238.316406 185.882812 233.339844 179.972656 226.132812 C 174.058594 218.925781 171.101562 210.300781 171.101562 200.257812 C 171.101562 189.566406 173.492188 180.175781 178.269531 172.078125 C 183.050781 163.980469 189.9375 157.664062 198.925781 153.125 C 207.914062 148.589844 218.640625 146.324219 231.113281 146.324219 C 275.003906 146.324219 297.679688 164.867188 299.136719 201.957031 Z M 299.136719 201.957031 " fill-opacity="1" fill-rule="nonzero"/><path fill="#ffffff" d="M 425.488281 211.847656 L 425.488281 220.804688 L 377.457031 220.804688 L 377.457031 146.035156 L 387.558594 146.035156 L 387.558594 211.847656 Z M 425.488281 211.847656 " fill-opacity="1" fill-rule="nonzero"/><path fill="#ffffff" d="M 470.179688 222.78125 C 462.398438 222.78125 455.746094 221.011719 450.222656 217.476562 C 444.703125 213.933594 440.554688 209.175781 437.777344 203.207031 C 434.996094 197.234375 433.609375 190.640625 433.609375 183.417969 C 433.609375 176.199219 434.996094 169.605469 437.777344 163.632812 C 440.554688 157.660156 444.703125 152.90625 450.222656 149.363281 C 455.746094 145.820312 462.363281 144.050781 470.074219 144.050781 C 477.992188 144.050781 484.695312 145.890625 490.179688 149.574219 C 495.671875 153.25 499.769531 158.097656 502.480469 164.105469 C 505.1875 170.109375 506.542969 176.546875 506.542969 183.417969 C 506.542969 190.570312 505.132812 197.148438 502.316406 203.15625 C 499.503906 209.160156 495.355469 213.933594 489.871094 217.476562 C 484.386719 221.011719 477.820312 222.78125 470.179688 222.78125 Z M 496.121094 183.417969 C 496.121094 177.449219 495.027344 172.15625 492.84375 167.539062 C 490.65625 162.921875 487.578125 159.347656 483.621094 156.816406 C 479.664062 154.277344 475.113281 153.007812 469.96875 153.007812 C 464.902344 153.007812 460.40625 154.292969 456.480469 156.863281 C 452.558594 159.429688 449.5 163.003906 447.308594 167.585938 C 445.121094 172.171875 444.027344 177.449219 444.027344 183.417969 C 444.027344 189.390625 445.105469 194.683594 447.257812 199.300781 C 449.414062 203.917969 452.46875 207.492188 456.425781 210.023438 C 460.386719 212.558594 464.933594 213.824219 470.074219 213.824219 C 475.214844 213.824219 479.761719 212.542969 483.726562 209.976562 C 487.683594 207.402344 490.742188 203.832031 492.890625 199.25 C 495.042969 194.667969 496.121094 189.390625 496.121094 183.417969 Z M 496.121094 183.417969 " fill-opacity="1" fill-rule="nonzero"/><path fill="#ffffff" d="M 552.171875 153.007812 C 547.308594 153.007812 543.035156 154.207031 539.351562 156.601562 C 535.675781 158.996094 532.808594 162.433594 530.757812 166.910156 C 528.710938 171.390625 527.6875 176.648438 527.6875 182.6875 C 527.6875 193.03125 529.789062 200.804688 533.988281 206.011719 C 538.195312 211.21875 544.328125 213.824219 552.386719 213.824219 C 557.800781 213.824219 562.453125 212 566.34375 208.355469 C 570.234375 204.710938 572.734375 199.695312 573.847656 193.3125 L 583.640625 193.3125 C 582.804688 199.421875 580.890625 204.699219 577.902344 209.144531 C 574.917969 213.585938 571.117188 216.972656 566.5 219.296875 C 561.878906 221.621094 556.757812 222.78125 551.132812 222.78125 C 544.394531 222.78125 538.476562 221.21875 533.371094 218.09375 C 528.261719 214.96875 524.304688 210.425781 521.488281 204.457031 C 518.675781 198.488281 517.269531 191.367188 517.269531 183.101562 C 517.269531 175.328125 518.695312 168.492188 521.542969 162.589844 C 524.390625 156.691406 528.453125 152.125 533.730469 148.898438 C 539.007812 145.667969 545.15625 144.050781 552.171875 144.050781 C 557.660156 144.050781 562.609375 145.058594 567.019531 147.074219 C 571.433594 149.089844 575.027344 151.9375 577.804688 155.617188 C 580.582031 159.296875 582.285156 163.597656 582.910156 168.523438 L 573.117188 168.523438 C 572.074219 163.527344 569.746094 159.691406 566.132812 157.019531 C 562.523438 154.34375 557.871094 153.007812 552.171875 153.007812 Z M 552.171875 153.007812 " fill-opacity="1" fill-rule="nonzero"/><path fill="#ffffff" d="M 647.085938 220.804688 L 639.695312 199.039062 L 609.683594 199.039062 L 601.867188 220.804688 L 591.449219 220.804688 L 619.582031 146.035156 L 631.042969 146.035156 L 658.128906 220.804688 Z M 636.046875 190.082031 L 625.003906 157.171875 L 624.789062 157.171875 L 612.808594 190.082031 Z M 636.046875 190.082031 " fill-opacity="1" fill-rule="nonzero"/><path fill="#ffffff" d="M 717.519531 211.847656 L 717.519531 220.804688 L 669.488281 220.804688 L 669.488281 146.035156 L 679.589844 146.035156 L 679.589844 211.847656 Z M 717.519531 211.847656 " fill-opacity="1" fill-rule="nonzero"/><path fill="#ffffff" d="M 432.050781 271.785156 L 422.566406 271.785156 C 422.359375 266.988281 420.605469 263.257812 417.308594 260.589844 C 414.007812 257.914062 409.578125 256.578125 404.023438 256.578125 C 398.605469 256.578125 394.398438 257.707031 391.417969 259.960938 C 388.429688 262.21875 386.941406 265.464844 386.941406 269.699219 C 386.941406 274.695312 389.890625 277.851562 395.796875 279.171875 L 416.730469 283.960938 C 428.332031 286.605469 434.132812 293.375 434.132812 304.269531 C 434.132812 311.632812 431.390625 317.203125 425.902344 320.988281 C 420.417969 324.769531 413.363281 326.660156 404.75 326.660156 C 395.023438 326.660156 387.574219 324.460938 382.398438 320.054688 C 377.226562 315.644531 374.640625 309.132812 374.640625 300.519531 L 384.125 300.519531 L 384.125 300.730469 C 384.125 306.144531 385.980469 310.378906 389.699219 313.4375 C 393.414062 316.496094 398.433594 318.019531 404.75 318.019531 C 410.304688 318.019531 414.957031 317.03125 418.707031 315.050781 C 422.464844 313.070312 424.339844 309.824219 424.339844 305.3125 C 424.339844 302.398438 423.699219 300.125 422.414062 298.492188 C 421.125 296.863281 419.230469 295.578125 416.730469 294.636719 C 414.234375 293.699219 410.414062 292.640625 405.269531 291.464844 L 392.667969 288.542969 C 387.390625 287.367188 383.480469 285.234375 380.941406 282.148438 C 378.40625 279.058594 377.140625 275.359375 377.140625 271.050781 C 377.140625 266.46875 378.164062 262.441406 380.214844 258.96875 C 382.265625 255.5 385.21875 252.792969 389.070312 250.851562 C 392.925781 248.902344 397.523438 247.929688 402.878906 247.929688 C 421.699219 247.929688 431.425781 255.882812 432.050781 271.785156 Z M 432.050781 271.785156 " fill-opacity="1" fill-rule="nonzero"/><path fill="#ffffff" d="M 477.992188 258.863281 L 477.992188 324.683594 L 467.890625 324.683594 L 467.890625 258.863281 L 442.570312 258.863281 L 442.570312 249.914062 L 503.316406 249.914062 L 503.316406 258.863281 Z M 477.992188 258.863281 " fill-opacity="1" fill-rule="nonzero"/><path fill="#ffffff" d="M 544.148438 317.703125 C 550.335938 317.703125 555.164062 315.933594 558.636719 312.398438 C 562.109375 308.855469 563.847656 303.925781 563.847656 297.605469 L 563.847656 249.914062 L 573.949219 249.914062 L 573.949219 298.234375 C 573.949219 303.789062 572.800781 308.699219 570.503906 312.96875 C 568.214844 317.238281 564.8125 320.585938 560.296875 323.015625 C 555.78125 325.445312 550.296875 326.660156 543.839844 326.660156 C 537.792969 326.660156 532.617188 325.515625 528.308594 323.226562 C 524.003906 320.933594 520.726562 317.757812 518.46875 313.699219 C 516.210938 309.636719 515.082031 304.96875 515.082031 299.691406 L 515.082031 249.914062 L 525.191406 249.914062 L 525.191406 297.394531 C 525.191406 303.785156 526.820312 308.765625 530.082031 312.339844 C 533.351562 315.917969 538.039062 317.703125 544.148438 317.703125 Z M 544.148438 317.703125 " fill-opacity="1" fill-rule="nonzero"/><path fill="#ffffff" d="M 654.378906 286.046875 C 654.378906 293.40625 653.164062 300.019531 650.734375 305.890625 C 648.300781 311.753906 644.742188 316.351562 640.054688 319.6875 C 635.367188 323.019531 629.6875 324.683594 623.019531 324.683594 L 592.601562 324.683594 L 592.601562 249.914062 L 623.125 249.914062 C 629.027344 249.914062 634.339844 251.320312 639.0625 254.128906 C 643.785156 256.9375 647.519531 261.070312 650.261719 266.519531 C 653.007812 271.96875 654.378906 278.480469 654.378906 286.046875 Z M 622.601562 316.042969 C 626.769531 316.042969 630.46875 314.949219 633.695312 312.765625 C 636.929688 310.574219 639.449219 307.292969 641.25 302.917969 C 643.058594 298.542969 643.960938 293.195312 643.960938 286.882812 C 643.960938 277.511719 641.964844 270.445312 637.96875 265.691406 C 633.976562 260.933594 628.539062 258.554688 621.667969 258.554688 L 602.699219 258.554688 L 602.699219 316.042969 Z M 622.601562 316.042969 " fill-opacity="1" fill-rule="nonzero"/><path fill="#ffffff" d="M 670.945312 249.914062 L 681.046875 249.914062 L 681.046875 324.683594 L 670.945312 324.683594 Z M 670.945312 249.914062 " fill-opacity="1" fill-rule="nonzero"/><path fill="#ffffff" d="M 733.144531 326.660156 C 725.363281 326.660156 718.710938 324.890625 713.1875 321.355469 C 707.667969 317.8125 703.519531 313.058594 700.742188 307.085938 C 697.960938 301.113281 696.574219 294.519531 696.574219 287.296875 C 696.574219 280.078125 697.960938 273.484375 700.742188 267.511719 C 703.519531 261.539062 707.667969 256.785156 713.1875 253.242188 C 718.710938 249.699219 725.328125 247.929688 733.039062 247.929688 C 740.957031 247.929688 747.660156 249.773438 753.144531 253.453125 C 758.632812 257.128906 762.734375 261.976562 765.445312 267.984375 C 768.148438 273.988281 769.503906 280.429688 769.503906 287.296875 C 769.503906 294.449219 768.097656 301.027344 765.28125 307.035156 C 762.46875 313.039062 758.320312 317.8125 752.835938 321.355469 C 747.347656 324.890625 740.785156 326.660156 733.144531 326.660156 Z M 759.085938 287.296875 C 759.085938 281.328125 757.992188 276.035156 755.804688 271.417969 C 753.617188 266.800781 750.542969 263.226562 746.582031 260.695312 C 742.628906 258.15625 738.078125 256.886719 732.933594 256.886719 C 727.863281 256.886719 723.371094 258.171875 719.445312 260.742188 C 715.523438 263.308594 712.464844 266.882812 710.273438 271.464844 C 708.085938 276.050781 706.992188 281.328125 706.992188 287.296875 C 706.992188 293.269531 708.070312 298.566406 710.222656 303.179688 C 712.375 307.796875 715.433594 311.371094 719.390625 313.902344 C 723.347656 316.4375 727.898438 317.703125 733.039062 317.703125 C 738.175781 317.703125 742.726562 316.421875 746.691406 313.855469 C 750.648438 311.285156 753.707031 307.710938 755.855469 303.132812 C 758.007812 298.546875 759.085938 293.269531 759.085938 287.296875 Z M 759.085938 287.296875 " fill-opacity="1" fill-rule="nonzero"/><path fill="#ffffff" d="M 838.164062 271.785156 L 828.683594 271.785156 C 828.472656 266.988281 826.722656 263.257812 823.421875 260.589844 C 820.121094 257.914062 815.695312 256.578125 810.140625 256.578125 C 804.71875 256.578125 800.515625 257.707031 797.53125 259.960938 C 794.546875 262.21875 793.054688 265.464844 793.054688 269.699219 C 793.054688 274.695312 796.003906 277.851562 801.910156 279.171875 L 822.847656 283.960938 C 834.445312 286.605469 840.25 293.375 840.25 304.269531 C 840.25 311.632812 837.503906 317.203125 832.019531 320.988281 C 826.53125 324.769531 819.480469 326.660156 810.863281 326.660156 C 801.140625 326.660156 793.6875 324.460938 788.511719 320.054688 C 783.339844 315.644531 780.753906 309.132812 780.753906 300.519531 L 790.238281 300.519531 L 790.238281 300.730469 C 790.238281 306.144531 792.097656 310.378906 795.8125 313.4375 C 799.53125 316.496094 804.546875 318.019531 810.863281 318.019531 C 816.417969 318.019531 821.074219 317.03125 824.824219 315.050781 C 828.578125 313.070312 830.457031 309.824219 830.457031 305.3125 C 830.457031 302.398438 829.8125 300.125 828.527344 298.492188 C 827.242188 296.863281 825.347656 295.578125 822.847656 294.636719 C 820.347656 293.699219 816.53125 292.640625 811.386719 291.464844 L 798.785156 288.542969 C 793.503906 287.367188 789.59375 285.234375 787.054688 282.148438 C 784.519531 279.058594 783.253906 275.359375 783.253906 271.050781 C 783.253906 266.46875 784.28125 262.441406 786.332031 258.96875 C 788.382812 255.5 791.332031 252.792969 795.1875 250.851562 C 799.039062 248.902344 803.640625 247.929688 808.992188 247.929688 C 827.816406 247.929688 837.539062 255.882812 838.164062 271.785156 Z M 838.164062 271.785156 " fill-opacity="1" fill-rule="nonzero"/></svg>