<svg xmlns="http://www.w3.org/2000/svg" xmlns:xlink="http://www.w3.org/1999/xlink" width="1000" zoomAndPan="magnify" viewBox="0 0 750 749.999995" height="1000" preserveAspectRatio="xMidYMid meet" version="1.0"><defs><g/></defs><g fill="#ffffff" fill-opacity="1"><g transform="translate(5.682198, 600.959991)"><g><path d="M 353.578125 -78.84375 L 353.578125 0 L 46.09375 0 L 46.09375 -435.453125 L 137.0625 -435.453125 L 137.0625 -78.84375 Z M 353.578125 -78.84375 "/></g></g></g><g fill="#ffffff" fill-opacity="1"><g transform="translate(333.786812, 600.959991)"><g><path d="M 191.046875 -371.78125 C 168.804688 -371.78125 150.609375 -367.023438 136.453125 -357.515625 C 122.304688 -348.015625 115.234375 -335.382812 115.234375 -319.625 C 115.234375 -307.894531 118.566406 -298.289062 125.234375 -290.8125 C 131.910156 -283.332031 145.757812 -277.164062 166.78125 -272.3125 L 269.28125 -247.453125 C 311.332031 -237.335938 340.546875 -222.78125 356.921875 -203.78125 C 373.296875 -184.78125 381.484375 -160.519531 381.484375 -131 C 381.484375 -99.863281 373.898438 -73.582031 358.734375 -52.15625 C 343.578125 -30.726562 323.054688 -14.757812 297.171875 -4.25 C 271.296875 6.257812 241.984375 11.515625 209.234375 11.515625 C 151.816406 11.515625 106.9375 -0.609375 74.59375 -24.859375 C 42.25 -49.117188 25.269531 -85.507812 23.65625 -134.03125 L 110.984375 -134.03125 C 111.796875 -111.789062 120.082031 -94.503906 135.84375 -82.171875 C 151.613281 -69.847656 174.054688 -63.6875 203.171875 -63.6875 C 232.691406 -63.6875 255.234375 -68.332031 270.796875 -77.625 C 286.359375 -86.925781 294.140625 -101.078125 294.140625 -120.078125 C 294.140625 -132.210938 289.992188 -141.71875 281.703125 -148.59375 C 273.421875 -155.46875 259.578125 -161.734375 240.171875 -167.390625 C 220.765625 -173.046875 188.414062 -180.929688 143.125 -191.046875 C 103.5 -199.941406 74.789062 -214.09375 57 -233.5 C 39.21875 -252.90625 30.328125 -279.390625 30.328125 -312.953125 C 30.328125 -338.828125 36.488281 -361.867188 48.8125 -382.078125 C 61.144531 -402.296875 79.847656 -418.164062 104.921875 -429.6875 C 129.992188 -441.21875 160.925781 -446.984375 197.71875 -446.984375 C 231.269531 -446.984375 260.679688 -441.21875 285.953125 -429.6875 C 311.222656 -418.164062 330.929688 -401.789062 345.078125 -380.5625 C 359.234375 -359.34375 366.71875 -334.582031 367.53125 -306.28125 L 280.203125 -306.28125 C 276.148438 -349.945312 246.429688 -371.78125 191.046875 -371.78125 Z M 191.046875 -371.78125 "/></g></g></g></svg>