<svg xmlns="http://www.w3.org/2000/svg" xmlns:xlink="http://www.w3.org/1999/xlink" width="1000" zoomAndPan="magnify" viewBox="0 0 750 749.999995" height="1000" preserveAspectRatio="xMidYMid meet" version="1.0"><defs><g/><clipPath id="08b95f12d1"><rect x="0" width="669" y="0" height="583"/></clipPath></defs><g transform="matrix(1, 0, 0, 1, 28, 142)"><g clip-path="url(#08b95f12d1)"><g fill="#ffffff" fill-opacity="1"><g transform="translate(0.393688, 455.855115)"><g><path d="M 325.6875 -52.15625 L 325.6875 0 L 46.09375 0 L 46.09375 -435.453125 L 104.921875 -435.453125 L 104.921875 -52.15625 Z M 325.6875 -52.15625 "/></g></g></g><g fill="#ffffff" fill-opacity="1"><g transform="translate(289.079955, 455.855115)"><g><path d="M 363.890625 -308.09375 L 308.703125 -308.09375 C 307.484375 -335.988281 297.269531 -357.71875 278.0625 -373.28125 C 258.863281 -388.851562 233.09375 -396.640625 200.75 -396.640625 C 169.207031 -396.640625 144.742188 -390.066406 127.359375 -376.921875 C 109.972656 -363.785156 101.28125 -344.882812 101.28125 -320.21875 C 101.28125 -291.113281 118.460938 -272.71875 152.828125 -265.03125 L 274.734375 -237.140625 C 342.253906 -221.773438 376.015625 -182.351562 376.015625 -118.875 C 376.015625 -76.007812 360.046875 -43.5625 328.109375 -21.53125 C 296.171875 0.5 255.128906 11.515625 204.984375 11.515625 C 148.378906 11.515625 105.015625 -1.316406 74.890625 -26.984375 C 44.773438 -52.660156 29.71875 -90.566406 29.71875 -140.703125 L 84.90625 -140.703125 L 84.90625 -139.484375 C 84.90625 -107.953125 95.71875 -83.289062 117.34375 -65.5 C 138.976562 -47.707031 168.191406 -38.8125 204.984375 -38.8125 C 237.335938 -38.8125 264.429688 -44.570312 286.265625 -56.09375 C 308.097656 -67.625 319.015625 -86.53125 319.015625 -112.8125 C 319.015625 -129.789062 315.273438 -143.03125 307.796875 -152.53125 C 300.316406 -162.03125 289.296875 -169.507812 274.734375 -174.96875 C 260.179688 -180.425781 237.945312 -186.59375 208.03125 -193.46875 L 134.640625 -210.453125 C 103.910156 -217.328125 81.164062 -229.757812 66.40625 -247.75 C 51.644531 -265.738281 44.265625 -287.269531 44.265625 -312.34375 C 44.265625 -339.03125 50.226562 -362.476562 62.15625 -382.6875 C 74.09375 -402.90625 91.28125 -418.675781 113.71875 -430 C 136.15625 -441.320312 162.941406 -446.984375 194.078125 -446.984375 C 303.648438 -446.984375 360.253906 -400.6875 363.890625 -308.09375 Z M 363.890625 -308.09375 "/></g></g></g></g></g></svg>