<svg xmlns="http://www.w3.org/2000/svg" xmlns:xlink="http://www.w3.org/1999/xlink" width="2000" zoomAndPan="magnify" viewBox="0 0 1500 599.999999" height="800" preserveAspectRatio="xMidYMid meet" version="1.0"><defs><g/></defs><g fill="#ffffff" fill-opacity="1"><g transform="translate(113.274834, 270.999968)"><g><path d="M 116.59375 -26 L 116.59375 0 L 15.203125 0 L 15.203125 -143.59375 L 45.203125 -143.59375 L 45.203125 -26 Z M 116.59375 -26 "/></g></g></g><g fill="#ffffff" fill-opacity="1"><g transform="translate(239.471538, 270.999968)"><g><path d="M 77.796875 3.796875 C 64.460938 3.796875 52.59375 0.960938 42.1875 -4.703125 C 31.789062 -10.367188 23.625 -18.867188 17.6875 -30.203125 C 11.757812 -41.535156 8.796875 -55.398438 8.796875 -71.796875 C 8.796875 -87.929688 11.726562 -101.695312 17.59375 -113.09375 C 23.46875 -124.5 31.601562 -133.066406 42 -138.796875 C 52.394531 -144.535156 64.328125 -147.40625 77.796875 -147.40625 C 91.265625 -147.40625 103.195312 -144.46875 113.59375 -138.59375 C 124 -132.726562 132.132812 -124.128906 138 -112.796875 C 143.863281 -101.460938 146.796875 -87.796875 146.796875 -71.796875 C 146.796875 -55.535156 143.828125 -41.703125 137.890625 -30.296875 C 131.960938 -18.898438 123.765625 -10.367188 113.296875 -4.703125 C 102.828125 0.960938 90.992188 3.796875 77.796875 3.796875 Z M 116.796875 -71.796875 C 116.796875 -87.796875 113.226562 -100.160156 106.09375 -108.890625 C 98.96875 -117.628906 89.46875 -122 77.59375 -122 C 66 -122 56.632812 -117.628906 49.5 -108.890625 C 42.363281 -100.160156 38.796875 -87.796875 38.796875 -71.796875 C 38.796875 -55.796875 42.328125 -43.425781 49.390625 -34.6875 C 56.460938 -25.957031 65.929688 -21.59375 77.796875 -21.59375 C 89.660156 -21.59375 99.125 -25.957031 106.1875 -34.6875 C 113.257812 -43.425781 116.796875 -55.796875 116.796875 -71.796875 Z M 116.796875 -71.796875 "/></g></g></g><g fill="#ffffff" fill-opacity="1"><g transform="translate(399.067391, 270.999968)"><g><path d="M 75.59375 -121.40625 C 64.53125 -121.40625 55.734375 -117.070312 49.203125 -108.40625 C 42.671875 -99.738281 39.40625 -87.40625 39.40625 -71.40625 C 39.40625 -56.332031 42.503906 -44.363281 48.703125 -35.5 C 54.898438 -26.632812 63.664062 -22.203125 75 -22.203125 C 83.394531 -22.203125 90.328125 -24.5 95.796875 -29.09375 C 101.265625 -33.695312 104.929688 -40.398438 106.796875 -49.203125 L 136.796875 -49.203125 C 133.460938 -32.128906 126.363281 -19.023438 115.5 -9.890625 C 104.632812 -0.765625 90.9375 3.796875 74.40625 3.796875 C 61.070312 3.796875 49.46875 0.765625 39.59375 -5.296875 C 29.726562 -11.367188 22.128906 -20.070312 16.796875 -31.40625 C 11.460938 -42.738281 8.796875 -56.132812 8.796875 -71.59375 C 8.796875 -87.0625 11.5625 -100.492188 17.09375 -111.890625 C 22.632812 -123.296875 30.40625 -132.066406 40.40625 -138.203125 C 50.40625 -144.335938 61.9375 -147.40625 75 -147.40625 C 86.332031 -147.40625 96.53125 -145.203125 105.59375 -140.796875 C 114.664062 -136.398438 121.898438 -130.367188 127.296875 -122.703125 C 132.703125 -115.035156 135.867188 -106.332031 136.796875 -96.59375 L 106.796875 -96.59375 C 102.929688 -113.132812 92.53125 -121.40625 75.59375 -121.40625 Z M 75.59375 -121.40625 "/></g></g></g><g fill="#ffffff" fill-opacity="1"><g transform="translate(547.463472, 270.999968)"><g><path d="M 107.796875 0 L 98.59375 -29.59375 L 45.59375 -29.59375 L 35.59375 0 L 4 0 L 55.203125 -143.59375 L 89.796875 -143.59375 L 140.40625 0 Z M 90.203125 -54.40625 L 72.40625 -111.203125 L 72 -111.203125 L 53.59375 -54.40625 Z M 90.203125 -54.40625 "/></g></g></g><g fill="#ffffff" fill-opacity="1"><g transform="translate(695.859599, 270.999968)"><g><path d="M 116.59375 -26 L 116.59375 0 L 15.203125 0 L 15.203125 -143.59375 L 45.203125 -143.59375 L 45.203125 -26 Z M 116.59375 -26 "/></g></g></g><g fill="#ffffff" fill-opacity="1"><g transform="translate(113.274834, 470.49996)"><g><path d="M 63 -122.59375 C 55.664062 -122.59375 49.664062 -121.023438 45 -117.890625 C 40.332031 -114.765625 38 -110.601562 38 -105.40625 C 38 -101.53125 39.097656 -98.359375 41.296875 -95.890625 C 43.492188 -93.429688 48.0625 -91.398438 55 -89.796875 L 88.796875 -81.59375 C 102.660156 -78.257812 112.289062 -73.457031 117.6875 -67.1875 C 123.09375 -60.925781 125.796875 -52.929688 125.796875 -43.203125 C 125.796875 -32.929688 123.296875 -24.257812 118.296875 -17.1875 C 113.296875 -10.125 106.53125 -4.859375 98 -1.390625 C 89.46875 2.066406 79.800781 3.796875 69 3.796875 C 50.0625 3.796875 35.257812 -0.203125 24.59375 -8.203125 C 13.925781 -16.203125 8.328125 -28.203125 7.796875 -44.203125 L 36.59375 -44.203125 C 36.863281 -36.867188 39.597656 -31.164062 44.796875 -27.09375 C 49.992188 -23.03125 57.394531 -21 67 -21 C 76.726562 -21 84.160156 -22.53125 89.296875 -25.59375 C 94.429688 -28.664062 97 -33.332031 97 -39.59375 C 97 -43.59375 95.628906 -46.726562 92.890625 -49 C 90.160156 -51.269531 85.59375 -53.335938 79.1875 -55.203125 C 72.789062 -57.066406 62.128906 -59.664062 47.203125 -63 C 34.128906 -65.9375 24.660156 -70.601562 18.796875 -77 C 12.929688 -83.394531 10 -92.128906 10 -103.203125 C 10 -111.734375 12.03125 -119.332031 16.09375 -126 C 20.164062 -132.664062 26.332031 -137.898438 34.59375 -141.703125 C 42.863281 -145.503906 53.066406 -147.40625 65.203125 -147.40625 C 76.265625 -147.40625 85.960938 -145.503906 94.296875 -141.703125 C 102.628906 -137.898438 109.128906 -132.5 113.796875 -125.5 C 118.460938 -118.5 120.929688 -110.332031 121.203125 -101 L 92.40625 -101 C 91.070312 -115.394531 81.269531 -122.59375 63 -122.59375 Z M 63 -122.59375 "/></g></g></g><g fill="#ffffff" fill-opacity="1"><g transform="translate(250.671265, 470.49996)"><g><path d="M 76.203125 -118.203125 L 76.203125 0 L 46.203125 0 L 46.203125 -118.203125 L 2.796875 -118.203125 L 2.796875 -143.59375 L 119.59375 -143.59375 L 119.59375 -118.203125 Z M 76.203125 -118.203125 "/></g></g></g><g fill="#ffffff" fill-opacity="1"><g transform="translate(376.867962, 470.49996)"><g><path d="M 70.796875 -21.59375 C 89.992188 -21.59375 99.59375 -30.660156 99.59375 -48.796875 L 99.59375 -143.59375 L 130.203125 -143.59375 L 130.203125 -49.203125 C 130.203125 -32.128906 125.203125 -19.023438 115.203125 -9.890625 C 105.203125 -0.765625 90.535156 3.796875 71.203125 3.796875 C 53.460938 3.796875 39.5625 -0.664062 29.5 -9.59375 C 19.4375 -18.53125 14.40625 -31.664062 14.40625 -49 L 14.40625 -143.59375 L 45 -143.59375 L 45 -49.59375 C 45 -41.0625 47.296875 -34.257812 51.890625 -29.1875 C 56.492188 -24.125 62.796875 -21.59375 70.796875 -21.59375 Z M 70.796875 -21.59375 "/></g></g></g><g fill="#ffffff" fill-opacity="1"><g transform="translate(525.264088, 470.49996)"><g><path d="M 137 -75.203125 C 137 -59.597656 134.53125 -46.128906 129.59375 -34.796875 C 124.664062 -23.460938 117.765625 -14.828125 108.890625 -8.890625 C 100.023438 -2.960938 89.863281 0 78.40625 0 L 15.203125 0 L 15.203125 -143.59375 L 79.59375 -143.59375 C 92.257812 -143.59375 102.894531 -140.625 111.5 -134.6875 C 120.101562 -128.757812 126.503906 -120.660156 130.703125 -110.390625 C 134.898438 -100.128906 137 -88.398438 137 -75.203125 Z M 106.40625 -73.203125 C 106.40625 -103.597656 95.800781 -118.796875 74.59375 -118.796875 L 44.59375 -118.796875 L 44.59375 -24.796875 L 74.40625 -24.796875 C 84.269531 -24.796875 92.066406 -29.128906 97.796875 -37.796875 C 103.535156 -46.460938 106.40625 -58.265625 106.40625 -73.203125 Z M 106.40625 -73.203125 "/></g></g></g><g fill="#ffffff" fill-opacity="1"><g transform="translate(673.660215, 470.49996)"><g><path d="M 12.796875 0 L 12.796875 -143.59375 L 42.796875 -143.59375 L 42.796875 0 Z M 12.796875 0 "/></g></g></g><g fill="#ffffff" fill-opacity="1"><g transform="translate(733.258754, 470.49996)"><g><path d="M 77.796875 3.796875 C 64.460938 3.796875 52.59375 0.960938 42.1875 -4.703125 C 31.789062 -10.367188 23.625 -18.867188 17.6875 -30.203125 C 11.757812 -41.535156 8.796875 -55.398438 8.796875 -71.796875 C 8.796875 -87.929688 11.726562 -101.695312 17.59375 -113.09375 C 23.46875 -124.5 31.601562 -133.066406 42 -138.796875 C 52.394531 -144.535156 64.328125 -147.40625 77.796875 -147.40625 C 91.265625 -147.40625 103.195312 -144.46875 113.59375 -138.59375 C 124 -132.726562 132.132812 -124.128906 138 -112.796875 C 143.863281 -101.460938 146.796875 -87.796875 146.796875 -71.796875 C 146.796875 -55.535156 143.828125 -41.703125 137.890625 -30.296875 C 131.960938 -18.898438 123.765625 -10.367188 113.296875 -4.703125 C 102.828125 0.960938 90.992188 3.796875 77.796875 3.796875 Z M 116.796875 -71.796875 C 116.796875 -87.796875 113.226562 -100.160156 106.09375 -108.890625 C 98.96875 -117.628906 89.46875 -122 77.59375 -122 C 66 -122 56.632812 -117.628906 49.5 -108.890625 C 42.363281 -100.160156 38.796875 -87.796875 38.796875 -71.796875 C 38.796875 -55.796875 42.328125 -43.425781 49.390625 -34.6875 C 56.460938 -25.957031 65.929688 -21.59375 77.796875 -21.59375 C 89.660156 -21.59375 99.125 -25.957031 106.1875 -34.6875 C 113.257812 -43.425781 116.796875 -55.796875 116.796875 -71.796875 Z M 116.796875 -71.796875 "/></g></g></g><g fill="#ffffff" fill-opacity="1"><g transform="translate(892.854569, 470.49996)"><g><path d="M 63 -122.59375 C 55.664062 -122.59375 49.664062 -121.023438 45 -117.890625 C 40.332031 -114.765625 38 -110.601562 38 -105.40625 C 38 -101.53125 39.097656 -98.359375 41.296875 -95.890625 C 43.492188 -93.429688 48.0625 -91.398438 55 -89.796875 L 88.796875 -81.59375 C 102.660156 -78.257812 112.289062 -73.457031 117.6875 -67.1875 C 123.09375 -60.925781 125.796875 -52.929688 125.796875 -43.203125 C 125.796875 -32.929688 123.296875 -24.257812 118.296875 -17.1875 C 113.296875 -10.125 106.53125 -4.859375 98 -1.390625 C 89.46875 2.066406 79.800781 3.796875 69 3.796875 C 50.0625 3.796875 35.257812 -0.203125 24.59375 -8.203125 C 13.925781 -16.203125 8.328125 -28.203125 7.796875 -44.203125 L 36.59375 -44.203125 C 36.863281 -36.867188 39.597656 -31.164062 44.796875 -27.09375 C 49.992188 -23.03125 57.394531 -21 67 -21 C 76.726562 -21 84.160156 -22.53125 89.296875 -25.59375 C 94.429688 -28.664062 97 -33.332031 97 -39.59375 C 97 -43.59375 95.628906 -46.726562 92.890625 -49 C 90.160156 -51.269531 85.59375 -53.335938 79.1875 -55.203125 C 72.789062 -57.066406 62.128906 -59.664062 47.203125 -63 C 34.128906 -65.9375 24.660156 -70.601562 18.796875 -77 C 12.929688 -83.394531 10 -92.128906 10 -103.203125 C 10 -111.734375 12.03125 -119.332031 16.09375 -126 C 20.164062 -132.664062 26.332031 -137.898438 34.59375 -141.703125 C 42.863281 -145.503906 53.066406 -147.40625 65.203125 -147.40625 C 76.265625 -147.40625 85.960938 -145.503906 94.296875 -141.703125 C 102.628906 -137.898438 109.128906 -132.5 113.796875 -125.5 C 118.460938 -118.5 120.929688 -110.332031 121.203125 -101 L 92.40625 -101 C 91.070312 -115.394531 81.269531 -122.59375 63 -122.59375 Z M 63 -122.59375 "/></g></g></g></svg>