<svg xmlns="http://www.w3.org/2000/svg" xmlns:xlink="http://www.w3.org/1999/xlink" width="2000" zoomAndPan="magnify" viewBox="0 0 1500 599.999999" height="800" preserveAspectRatio="xMidYMid meet" version="1.0"><defs><g/></defs><g fill="#ffffff" fill-opacity="1"><g transform="translate(113.274834, 270.999968)"><g><path d="M 107.40625 -17.203125 L 107.40625 0 L 15.203125 0 L 15.203125 -143.59375 L 34.59375 -143.59375 L 34.59375 -17.203125 Z M 107.40625 -17.203125 "/></g></g></g><g fill="#ffffff" fill-opacity="1"><g transform="translate(228.471858, 270.999968)"><g><path d="M 78 3.796875 C 63.0625 3.796875 50.289062 0.398438 39.6875 -6.390625 C 29.09375 -13.191406 21.128906 -22.328125 15.796875 -33.796875 C 10.460938 -45.265625 7.796875 -57.929688 7.796875 -71.796875 C 7.796875 -85.660156 10.460938 -98.328125 15.796875 -109.796875 C 21.128906 -121.265625 29.09375 -130.398438 39.6875 -137.203125 C 50.289062 -144.003906 62.992188 -147.40625 77.796875 -147.40625 C 92.992188 -147.40625 105.859375 -143.867188 116.390625 -136.796875 C 126.929688 -129.734375 134.800781 -120.429688 140 -108.890625 C 145.195312 -97.359375 147.796875 -84.992188 147.796875 -71.796875 C 147.796875 -58.066406 145.09375 -45.429688 139.6875 -33.890625 C 134.289062 -22.359375 126.328125 -13.191406 115.796875 -6.390625 C 105.265625 0.398438 92.664062 3.796875 78 3.796875 Z M 127.796875 -71.796875 C 127.796875 -83.265625 125.695312 -93.429688 121.5 -102.296875 C 117.300781 -111.160156 111.398438 -118.023438 103.796875 -122.890625 C 96.203125 -127.765625 87.46875 -130.203125 77.59375 -130.203125 C 67.863281 -130.203125 59.234375 -127.734375 51.703125 -122.796875 C 44.171875 -117.867188 38.300781 -111.003906 34.09375 -102.203125 C 29.894531 -93.398438 27.796875 -83.265625 27.796875 -71.796875 C 27.796875 -60.328125 29.863281 -50.160156 34 -41.296875 C 38.132812 -32.429688 44 -25.566406 51.59375 -20.703125 C 59.195312 -15.835938 67.929688 -13.40625 77.796875 -13.40625 C 87.660156 -13.40625 96.394531 -15.867188 104 -20.796875 C 111.601562 -25.734375 117.46875 -32.597656 121.59375 -41.390625 C 125.726562 -50.191406 127.796875 -60.328125 127.796875 -71.796875 Z M 127.796875 -71.796875 "/></g></g></g><g fill="#ffffff" fill-opacity="1"><g transform="translate(388.067696, 270.999968)"><g><path d="M 75.796875 -130.203125 C 66.460938 -130.203125 58.257812 -127.898438 51.1875 -123.296875 C 44.125 -118.703125 38.625 -112.101562 34.6875 -103.5 C 30.757812 -94.894531 28.796875 -84.796875 28.796875 -73.203125 C 28.796875 -53.335938 32.828125 -38.40625 40.890625 -28.40625 C 48.960938 -18.40625 60.734375 -13.40625 76.203125 -13.40625 C 86.597656 -13.40625 95.53125 -16.90625 103 -23.90625 C 110.46875 -30.90625 115.269531 -40.535156 117.40625 -52.796875 L 136.203125 -52.796875 C 134.597656 -41.066406 130.925781 -30.929688 125.1875 -22.390625 C 119.457031 -13.859375 112.160156 -7.359375 103.296875 -2.890625 C 94.429688 1.566406 84.597656 3.796875 73.796875 3.796875 C 60.867188 3.796875 49.503906 0.796875 39.703125 -5.203125 C 29.898438 -11.203125 22.296875 -19.929688 16.890625 -31.390625 C 11.492188 -42.859375 8.796875 -56.53125 8.796875 -72.40625 C 8.796875 -87.332031 11.53125 -100.460938 17 -111.796875 C 22.46875 -123.128906 30.265625 -131.894531 40.390625 -138.09375 C 50.523438 -144.300781 62.328125 -147.40625 75.796875 -147.40625 C 86.328125 -147.40625 95.828125 -145.46875 104.296875 -141.59375 C 112.765625 -137.726562 119.664062 -132.257812 125 -125.1875 C 130.332031 -118.125 133.597656 -109.863281 134.796875 -100.40625 L 116 -100.40625 C 114 -110 109.53125 -117.363281 102.59375 -122.5 C 95.664062 -127.632812 86.734375 -130.203125 75.796875 -130.203125 Z M 75.796875 -130.203125 "/></g></g></g><g fill="#ffffff" fill-opacity="1"><g transform="translate(536.463822, 270.999968)"><g><path d="M 109.59375 0 L 95.40625 -41.796875 L 37.796875 -41.796875 L 22.796875 0 L 2.796875 0 L 56.796875 -143.59375 L 78.796875 -143.59375 L 130.796875 0 Z M 88.40625 -59 L 67.203125 -122.203125 L 66.796875 -122.203125 L 43.796875 -59 Z M 88.40625 -59 "/></g></g></g><g fill="#ffffff" fill-opacity="1"><g transform="translate(673.860254, 270.999968)"><g><path d="M 107.40625 -17.203125 L 107.40625 0 L 15.203125 0 L 15.203125 -143.59375 L 34.59375 -143.59375 L 34.59375 -17.203125 Z M 107.40625 -17.203125 "/></g></g></g><g fill="#ffffff" fill-opacity="1"><g transform="translate(113.274834, 470.49996)"><g><path d="M 120 -101.59375 L 101.796875 -101.59375 C 101.398438 -110.800781 98.035156 -117.96875 91.703125 -123.09375 C 85.367188 -128.226562 76.867188 -130.796875 66.203125 -130.796875 C 55.796875 -130.796875 47.726562 -128.628906 42 -124.296875 C 36.269531 -119.960938 33.40625 -113.726562 33.40625 -105.59375 C 33.40625 -96 39.070312 -89.9375 50.40625 -87.40625 L 90.59375 -78.203125 C 112.863281 -73.128906 124 -60.128906 124 -39.203125 C 124 -25.066406 118.734375 -14.363281 108.203125 -7.09375 C 97.671875 0.164062 84.132812 3.796875 67.59375 3.796875 C 48.925781 3.796875 34.625 -0.429688 24.6875 -8.890625 C 14.757812 -17.359375 9.796875 -29.863281 9.796875 -46.40625 L 28 -46.40625 L 28 -46 C 28 -35.601562 31.566406 -27.46875 38.703125 -21.59375 C 45.835938 -15.726562 55.46875 -12.796875 67.59375 -12.796875 C 78.257812 -12.796875 87.191406 -14.695312 94.390625 -18.5 C 101.597656 -22.300781 105.203125 -28.535156 105.203125 -37.203125 C 105.203125 -42.796875 103.96875 -47.160156 101.5 -50.296875 C 99.03125 -53.429688 95.394531 -55.898438 90.59375 -57.703125 C 85.800781 -59.503906 78.46875 -61.535156 68.59375 -63.796875 L 44.40625 -69.40625 C 34.269531 -71.664062 26.765625 -75.757812 21.890625 -81.6875 C 17.023438 -87.625 14.59375 -94.726562 14.59375 -103 C 14.59375 -111.800781 16.5625 -119.535156 20.5 -126.203125 C 24.4375 -132.867188 30.101562 -138.066406 37.5 -141.796875 C 44.894531 -145.535156 53.726562 -147.40625 64 -147.40625 C 100.132812 -147.40625 118.800781 -132.132812 120 -101.59375 Z M 120 -101.59375 "/></g></g></g><g fill="#ffffff" fill-opacity="1"><g transform="translate(250.671265, 470.49996)"><g><path d="M 70.796875 -126.40625 L 70.796875 0 L 51.40625 0 L 51.40625 -126.40625 L 2.796875 -126.40625 L 2.796875 -143.59375 L 119.40625 -143.59375 L 119.40625 -126.40625 Z M 70.796875 -126.40625 "/></g></g></g><g fill="#ffffff" fill-opacity="1"><g transform="translate(376.867962, 470.49996)"><g><path d="M 71.59375 -13.40625 C 83.46875 -13.40625 92.738281 -16.800781 99.40625 -23.59375 C 106.070312 -30.394531 109.40625 -39.863281 109.40625 -52 L 109.40625 -143.59375 L 128.796875 -143.59375 L 128.796875 -50.796875 C 128.796875 -40.128906 126.59375 -30.695312 122.1875 -22.5 C 117.789062 -14.300781 111.257812 -7.867188 102.59375 -3.203125 C 93.925781 1.460938 83.394531 3.796875 71 3.796875 C 59.394531 3.796875 49.457031 1.597656 41.1875 -2.796875 C 32.925781 -7.203125 26.628906 -13.300781 22.296875 -21.09375 C 17.960938 -28.894531 15.796875 -37.863281 15.796875 -48 L 15.796875 -143.59375 L 35.203125 -143.59375 L 35.203125 -52.40625 C 35.203125 -40.132812 38.332031 -30.566406 44.59375 -23.703125 C 50.863281 -16.835938 59.863281 -13.40625 71.59375 -13.40625 Z M 71.59375 -13.40625 "/></g></g></g><g fill="#ffffff" fill-opacity="1"><g transform="translate(525.264088, 470.49996)"><g><path d="M 134.796875 -74.203125 C 134.796875 -60.066406 132.460938 -47.363281 127.796875 -36.09375 C 123.128906 -24.832031 116.296875 -16 107.296875 -9.59375 C 98.296875 -3.195312 87.394531 0 74.59375 0 L 16.203125 0 L 16.203125 -143.59375 L 74.796875 -143.59375 C 86.128906 -143.59375 96.328125 -140.894531 105.390625 -135.5 C 114.460938 -130.101562 121.628906 -122.171875 126.890625 -111.703125 C 132.160156 -101.234375 134.796875 -88.734375 134.796875 -74.203125 Z M 73.796875 -16.59375 C 81.796875 -16.59375 88.894531 -18.691406 95.09375 -22.890625 C 101.300781 -27.097656 106.132812 -33.398438 109.59375 -41.796875 C 113.0625 -50.203125 114.796875 -60.46875 114.796875 -72.59375 C 114.796875 -90.59375 110.960938 -104.160156 103.296875 -113.296875 C 95.628906 -122.429688 85.195312 -127 72 -127 L 35.59375 -127 L 35.59375 -16.59375 Z M 73.796875 -16.59375 "/></g></g></g><g fill="#ffffff" fill-opacity="1"><g transform="translate(673.660215, 470.49996)"><g><path d="M 18.203125 0 L 18.203125 -143.59375 L 37.59375 -143.59375 L 37.59375 0 Z M 18.203125 0 "/></g></g></g><g fill="#ffffff" fill-opacity="1"><g transform="translate(733.258754, 470.49996)"><g><path d="M 78 3.796875 C 63.0625 3.796875 50.289062 0.398438 39.6875 -6.390625 C 29.09375 -13.191406 21.128906 -22.328125 15.796875 -33.796875 C 10.460938 -45.265625 7.796875 -57.929688 7.796875 -71.796875 C 7.796875 -85.660156 10.460938 -98.328125 15.796875 -109.796875 C 21.128906 -121.265625 29.09375 -130.398438 39.6875 -137.203125 C 50.289062 -144.003906 62.992188 -147.40625 77.796875 -147.40625 C 92.992188 -147.40625 105.859375 -143.867188 116.390625 -136.796875 C 126.929688 -129.734375 134.800781 -120.429688 140 -108.890625 C 145.195312 -97.359375 147.796875 -84.992188 147.796875 -71.796875 C 147.796875 -58.066406 145.09375 -45.429688 139.6875 -33.890625 C 134.289062 -22.359375 126.328125 -13.191406 115.796875 -6.390625 C 105.265625 0.398438 92.664062 3.796875 78 3.796875 Z M 127.796875 -71.796875 C 127.796875 -83.265625 125.695312 -93.429688 121.5 -102.296875 C 117.300781 -111.160156 111.398438 -118.023438 103.796875 -122.890625 C 96.203125 -127.765625 87.46875 -130.203125 77.59375 -130.203125 C 67.863281 -130.203125 59.234375 -127.734375 51.703125 -122.796875 C 44.171875 -117.867188 38.300781 -111.003906 34.09375 -102.203125 C 29.894531 -93.398438 27.796875 -83.265625 27.796875 -71.796875 C 27.796875 -60.328125 29.863281 -50.160156 34 -41.296875 C 38.132812 -32.429688 44 -25.566406 51.59375 -20.703125 C 59.195312 -15.835938 67.929688 -13.40625 77.796875 -13.40625 C 87.660156 -13.40625 96.394531 -15.867188 104 -20.796875 C 111.601562 -25.734375 117.46875 -32.597656 121.59375 -41.390625 C 125.726562 -50.191406 127.796875 -60.328125 127.796875 -71.796875 Z M 127.796875 -71.796875 "/></g></g></g><g fill="#ffffff" fill-opacity="1"><g transform="translate(892.854569, 470.49996)"><g><path d="M 120 -101.59375 L 101.796875 -101.59375 C 101.398438 -110.800781 98.035156 -117.96875 91.703125 -123.09375 C 85.367188 -128.226562 76.867188 -130.796875 66.203125 -130.796875 C 55.796875 -130.796875 47.726562 -128.628906 42 -124.296875 C 36.269531 -119.960938 33.40625 -113.726562 33.40625 -105.59375 C 33.40625 -96 39.070312 -89.9375 50.40625 -87.40625 L 90.59375 -78.203125 C 112.863281 -73.128906 124 -60.128906 124 -39.203125 C 124 -25.066406 118.734375 -14.363281 108.203125 -7.09375 C 97.671875 0.164062 84.132812 3.796875 67.59375 3.796875 C 48.925781 3.796875 34.625 -0.429688 24.6875 -8.890625 C 14.757812 -17.359375 9.796875 -29.863281 9.796875 -46.40625 L 28 -46.40625 L 28 -46 C 28 -35.601562 31.566406 -27.46875 38.703125 -21.59375 C 45.835938 -15.726562 55.46875 -12.796875 67.59375 -12.796875 C 78.257812 -12.796875 87.191406 -14.695312 94.390625 -18.5 C 101.597656 -22.300781 105.203125 -28.535156 105.203125 -37.203125 C 105.203125 -42.796875 103.96875 -47.160156 101.5 -50.296875 C 99.03125 -53.429688 95.394531 -55.898438 90.59375 -57.703125 C 85.800781 -59.503906 78.46875 -61.535156 68.59375 -63.796875 L 44.40625 -69.40625 C 34.269531 -71.664062 26.765625 -75.757812 21.890625 -81.6875 C 17.023438 -87.625 14.59375 -94.726562 14.59375 -103 C 14.59375 -111.800781 16.5625 -119.535156 20.5 -126.203125 C 24.4375 -132.867188 30.101562 -138.066406 37.5 -141.796875 C 44.894531 -145.535156 53.726562 -147.40625 64 -147.40625 C 100.132812 -147.40625 118.800781 -132.132812 120 -101.59375 Z M 120 -101.59375 "/></g></g></g></svg>