<svg xmlns="http://www.w3.org/2000/svg" xmlns:xlink="http://www.w3.org/1999/xlink" width="2500" zoomAndPan="magnify" viewBox="0 0 1874.88 749.999995" height="1000" preserveAspectRatio="xMidYMid meet" version="1.0"><path fill="#111827" d="M 353.9375 497.894531 L 353.9375 563.722656 L 97.203125 563.722656 L 97.203125 200.144531 L 173.15625 200.144531 L 173.15625 497.894531 Z M 353.9375 497.894531 " fill-opacity="1" fill-rule="nonzero"/><path fill="#111827" d="M 492.179688 253.304688 C 473.609375 253.304688 458.417969 257.277344 446.597656 265.214844 C 434.785156 273.148438 428.882812 283.695312 428.882812 296.851562 C 428.882812 306.648438 431.664062 314.667969 437.230469 320.910156 C 442.804688 327.15625 454.367188 332.304688 471.921875 336.355469 L 557.503906 357.113281 C 592.613281 365.558594 617.003906 377.710938 630.675781 393.578125 C 644.351562 409.441406 651.1875 429.699219 651.1875 454.34375 C 651.1875 480.34375 644.851562 502.285156 632.191406 520.175781 C 619.535156 538.066406 602.398438 551.402344 580.789062 560.175781 C 559.183594 568.949219 534.710938 573.339844 507.367188 573.339844 C 459.425781 573.339844 421.953125 563.214844 394.949219 542.96875 C 367.941406 522.710938 353.765625 492.328125 352.417969 451.8125 L 425.332031 451.8125 C 426.011719 470.386719 432.929688 484.816406 446.089844 495.113281 C 459.253906 505.402344 477.992188 510.546875 502.304688 510.546875 C 526.953125 510.546875 545.773438 506.667969 558.769531 498.910156 C 571.761719 491.144531 578.257812 479.328125 578.257812 463.464844 C 578.257812 453.335938 574.792969 445.394531 567.875 439.65625 C 560.960938 433.914062 549.402344 428.683594 533.199219 423.960938 C 516.996094 419.238281 489.984375 412.65625 452.167969 404.210938 C 419.082031 396.78125 395.113281 384.964844 380.257812 368.761719 C 365.414062 352.558594 357.988281 330.445312 357.988281 302.425781 C 357.988281 280.820312 363.132812 261.582031 373.421875 244.707031 C 383.71875 227.828125 399.335938 214.578125 420.269531 204.957031 C 441.203125 195.328125 467.03125 190.515625 497.75 190.515625 C 525.765625 190.515625 550.320312 195.328125 571.421875 204.957031 C 592.519531 214.578125 608.976562 228.25 620.789062 245.972656 C 632.609375 263.691406 638.855469 284.363281 639.535156 307.996094 L 566.621094 307.996094 C 563.234375 271.539062 538.421875 253.304688 492.179688 253.304688 Z M 492.179688 253.304688 " fill-opacity="1" fill-rule="nonzero"/><path fill="#111827" d="M 896.308594 315.152344 L 896.308594 343.394531 L 786.152344 343.394531 L 786.152344 187.425781 L 818.746094 187.425781 L 818.746094 315.152344 Z M 896.308594 315.152344 " fill-opacity="1" fill-rule="nonzero"/><path fill="#111827" d="M 991.261719 347.519531 C 976.773438 347.519531 963.878906 344.4375 952.574219 338.285156 C 941.277344 332.132812 932.40625 322.902344 925.957031 310.585938 C 919.515625 298.277344 916.296875 283.222656 916.296875 265.410156 C 916.296875 247.886719 919.480469 232.933594 925.855469 220.554688 C 932.238281 208.164062 941.074219 198.859375 952.371094 192.636719 C 963.664062 186.402344 976.628906 183.285156 991.261719 183.285156 C 1005.894531 183.285156 1018.855469 186.476562 1030.152344 192.855469 C 1041.457031 199.230469 1050.292969 208.566406 1056.667969 220.875 C 1063.039062 233.1875 1066.222656 248.03125 1066.222656 265.410156 C 1066.222656 283.074219 1063 298.097656 1056.546875 310.484375 C 1050.105469 322.867188 1041.203125 332.132812 1029.828125 338.285156 C 1018.457031 344.4375 1005.597656 347.519531 991.261719 347.519531 Z M 1033.632812 265.410156 C 1033.632812 248.03125 1029.753906 234.601562 1022.003906 225.117188 C 1014.261719 215.628906 1003.941406 210.878906 991.039062 210.878906 C 978.445312 210.878906 968.265625 215.628906 960.519531 225.117188 C 952.765625 234.601562 948.890625 248.03125 948.890625 265.410156 C 948.890625 282.789062 952.726562 296.226562 960.398438 305.71875 C 968.082031 315.199219 978.367188 319.9375 991.261719 319.9375 C 1004.148438 319.9375 1014.433594 315.199219 1022.105469 305.71875 C 1029.785156 296.226562 1033.632812 282.789062 1033.632812 265.410156 Z M 1033.632812 265.410156 " fill-opacity="1" fill-rule="nonzero"/><path fill="#111827" d="M 1162.257812 211.523438 C 1150.238281 211.523438 1140.679688 216.234375 1133.585938 225.644531 C 1126.488281 235.058594 1122.941406 248.453125 1122.941406 265.832031 C 1122.941406 282.207031 1126.308594 295.207031 1133.042969 304.835938 C 1139.773438 314.464844 1149.296875 319.277344 1161.613281 319.277344 C 1170.730469 319.277344 1178.265625 316.78125 1184.207031 311.792969 C 1190.148438 306.792969 1194.128906 299.515625 1196.15625 289.949219 L 1228.75 289.949219 C 1225.125 308.496094 1217.414062 322.730469 1205.613281 332.652344 C 1193.804688 342.5625 1178.925781 347.519531 1160.964844 347.519531 C 1146.476562 347.519531 1133.875 344.226562 1123.144531 337.640625 C 1112.425781 331.046875 1104.171875 321.59375 1098.378906 309.28125 C 1092.582031 296.972656 1089.6875 282.421875 1089.6875 265.628906 C 1089.6875 248.828125 1092.691406 234.242188 1098.699219 221.859375 C 1104.71875 209.472656 1113.164062 199.945312 1124.027344 193.28125 C 1134.890625 186.617188 1147.421875 183.285156 1161.613281 183.285156 C 1173.921875 183.285156 1185.003906 185.675781 1194.851562 190.464844 C 1204.703125 195.242188 1212.5625 201.792969 1218.429688 210.117188 C 1224.300781 218.445312 1227.738281 227.898438 1228.75 238.476562 L 1196.15625 238.476562 C 1191.957031 220.511719 1180.660156 211.523438 1162.257812 211.523438 Z M 1162.257812 211.523438 " fill-opacity="1" fill-rule="nonzero"/><path fill="#111827" d="M 1358.464844 343.394531 L 1348.46875 311.25 L 1290.886719 311.25 L 1280.023438 343.394531 L 1245.699219 343.394531 L 1301.324219 187.425781 L 1338.910156 187.425781 L 1393.894531 343.394531 Z M 1339.351562 284.300781 L 1320.015625 222.605469 L 1319.574219 222.605469 L 1299.578125 284.300781 Z M 1339.351562 284.300781 " fill-opacity="1" fill-rule="nonzero"/><path fill="#111827" d="M 1529.246094 315.152344 L 1529.246094 343.394531 L 1419.089844 343.394531 L 1419.089844 187.425781 L 1451.683594 187.425781 L 1451.683594 315.152344 Z M 1529.246094 315.152344 " fill-opacity="1" fill-rule="nonzero"/><path fill="#111827" d="M 838.082031 426.929688 C 830.109375 426.929688 823.59375 428.632812 818.523438 432.035156 C 813.453125 435.429688 810.921875 439.953125 810.921875 445.597656 C 810.921875 449.804688 812.113281 453.25 814.503906 455.933594 C 816.886719 458.605469 821.851562 460.8125 829.390625 462.550781 L 866.109375 471.460938 C 881.167969 475.085938 891.628906 480.300781 897.496094 487.109375 C 903.367188 493.910156 906.304688 502.59375 906.304688 513.160156 C 906.304688 524.320312 903.589844 533.738281 898.15625 541.417969 C 892.726562 549.089844 885.375 554.808594 876.105469 558.578125 C 866.835938 562.332031 856.332031 564.210938 844.601562 564.210938 C 824.023438 564.210938 807.941406 559.867188 796.355469 551.175781 C 784.765625 542.488281 778.683594 529.453125 778.105469 512.074219 L 809.390625 512.074219 C 809.683594 520.042969 812.65625 526.238281 818.304688 530.65625 C 823.949219 535.070312 831.992188 537.277344 842.425781 537.277344 C 852.992188 537.277344 861.070312 535.613281 866.652344 532.289062 C 872.226562 528.953125 875.019531 523.882812 875.019531 517.082031 C 875.019531 512.734375 873.53125 509.332031 870.554688 506.863281 C 867.589844 504.398438 862.628906 502.15625 855.667969 500.125 C 848.714844 498.101562 837.132812 495.28125 820.917969 491.65625 C 806.714844 488.46875 796.425781 483.402344 790.058594 476.449219 C 783.683594 469.503906 780.5 460.019531 780.5 447.988281 C 780.5 438.722656 782.707031 430.472656 787.121094 423.226562 C 791.542969 415.988281 798.242188 410.304688 807.21875 406.171875 C 816.203125 402.042969 827.289062 399.976562 840.472656 399.976562 C 852.492188 399.976562 863.027344 402.042969 872.082031 406.171875 C 881.136719 410.304688 888.195312 416.167969 893.269531 423.769531 C 898.335938 431.375 901.019531 440.246094 901.316406 450.382812 L 870.027344 450.382812 C 868.578125 434.746094 857.929688 426.929688 838.082031 426.929688 Z M 838.082031 426.929688 " fill-opacity="1" fill-rule="nonzero"/><path fill="#111827" d="M 1001.695312 431.695312 L 1001.695312 560.085938 L 969.105469 560.085938 L 969.105469 431.695312 L 921.945312 431.695312 L 921.945312 404.117188 L 1048.839844 404.117188 L 1048.839844 431.695312 Z M 1001.695312 431.695312 " fill-opacity="1" fill-rule="nonzero"/><path fill="#111827" d="M 1132.925781 536.632812 C 1153.78125 536.632812 1164.214844 526.785156 1164.214844 507.085938 L 1164.214844 404.117188 L 1197.46875 404.117188 L 1197.46875 506.644531 C 1197.46875 525.1875 1192.035156 539.425781 1181.171875 549.34375 C 1170.308594 559.253906 1154.371094 564.210938 1133.367188 564.210938 C 1114.09375 564.210938 1098.992188 559.367188 1088.0625 549.667969 C 1077.128906 539.957031 1071.664062 525.695312 1071.664062 506.863281 L 1071.664062 404.117188 L 1104.902344 404.117188 L 1104.902344 506.21875 C 1104.902344 515.484375 1107.394531 522.875 1112.386719 528.382812 C 1117.386719 533.882812 1124.234375 536.632812 1132.925781 536.632812 Z M 1132.925781 536.632812 " fill-opacity="1" fill-rule="nonzero"/><path fill="#111827" d="M 1366.074219 478.402344 C 1366.074219 495.351562 1363.390625 509.984375 1358.027344 522.292969 C 1352.671875 534.605469 1345.179688 543.980469 1335.535156 550.429688 C 1325.902344 556.871094 1314.863281 560.085938 1302.417969 560.085938 L 1233.75 560.085938 L 1233.75 404.117188 L 1303.707031 404.117188 C 1317.464844 404.117188 1329.019531 407.34375 1338.371094 413.792969 C 1347.714844 420.234375 1354.671875 429.027344 1359.234375 440.183594 C 1363.792969 451.328125 1366.074219 464.070312 1366.074219 478.402344 Z M 1332.835938 480.574219 C 1332.835938 447.5625 1321.316406 431.050781 1298.273438 431.050781 L 1265.683594 431.050781 L 1265.683594 533.152344 L 1298.070312 533.152344 C 1308.785156 533.152344 1317.257812 528.449219 1323.484375 519.03125 C 1329.71875 509.621094 1332.835938 496.800781 1332.835938 480.574219 Z M 1332.835938 480.574219 " fill-opacity="1" fill-rule="nonzero"/><path fill="#111827" d="M 1392.359375 404.117188 L 1424.953125 404.117188 L 1424.953125 560.085938 L 1392.359375 560.085938 Z M 1392.359375 404.117188 " fill-opacity="1" fill-rule="nonzero"/><path fill="#111827" d="M 1527.726562 564.210938 C 1513.238281 564.210938 1500.34375 561.128906 1489.039062 554.976562 C 1477.742188 548.828125 1468.871094 539.59375 1462.421875 527.28125 C 1455.980469 514.972656 1452.761719 499.914062 1452.761719 482.101562 C 1452.761719 464.578125 1455.945312 449.628906 1462.320312 437.246094 C 1468.703125 424.855469 1477.539062 415.550781 1488.835938 409.328125 C 1500.128906 403.09375 1513.09375 399.976562 1527.726562 399.976562 C 1542.359375 399.976562 1555.320312 403.167969 1566.617188 409.550781 C 1577.921875 415.921875 1586.757812 425.261719 1593.132812 437.570312 C 1599.503906 449.882812 1602.691406 464.722656 1602.691406 482.101562 C 1602.691406 499.765625 1599.464844 514.789062 1593.015625 527.179688 C 1586.570312 539.558594 1577.667969 548.828125 1566.292969 554.976562 C 1554.921875 561.128906 1542.0625 564.210938 1527.726562 564.210938 Z M 1570.097656 482.101562 C 1570.097656 464.722656 1566.21875 451.292969 1558.46875 441.8125 C 1550.726562 432.320312 1540.40625 427.574219 1527.503906 427.574219 C 1514.910156 427.574219 1504.734375 432.320312 1496.984375 441.8125 C 1489.230469 451.292969 1485.355469 464.722656 1485.355469 482.101562 C 1485.355469 499.480469 1489.191406 512.917969 1496.863281 522.410156 C 1504.546875 531.894531 1514.832031 536.632812 1527.726562 536.632812 C 1540.613281 536.632812 1550.898438 531.894531 1558.570312 522.410156 C 1566.25 512.917969 1570.097656 499.480469 1570.097656 482.101562 Z M 1570.097656 482.101562 " fill-opacity="1" fill-rule="nonzero"/><path fill="#111827" d="M 1685.039062 426.929688 C 1677.070312 426.929688 1670.550781 428.632812 1665.484375 432.035156 C 1660.414062 435.429688 1657.878906 439.953125 1657.878906 445.597656 C 1657.878906 449.804688 1659.070312 453.25 1661.460938 455.933594 C 1663.847656 458.605469 1668.8125 460.8125 1676.347656 462.550781 L 1713.066406 471.460938 C 1728.128906 475.085938 1738.589844 480.300781 1744.453125 487.109375 C 1750.328125 493.910156 1753.265625 502.59375 1753.265625 513.160156 C 1753.265625 524.320312 1750.546875 533.738281 1745.117188 541.417969 C 1739.683594 549.089844 1732.332031 554.808594 1723.066406 558.578125 C 1713.796875 562.332031 1703.292969 564.210938 1691.558594 564.210938 C 1670.984375 564.210938 1654.898438 559.867188 1643.3125 551.175781 C 1631.722656 542.488281 1625.644531 529.453125 1625.066406 512.074219 L 1656.351562 512.074219 C 1656.644531 520.042969 1659.613281 526.238281 1665.265625 530.65625 C 1670.90625 535.070312 1678.949219 537.277344 1689.386719 537.277344 C 1699.953125 537.277344 1708.027344 535.613281 1713.609375 532.289062 C 1719.1875 528.953125 1721.980469 523.882812 1721.980469 517.082031 C 1721.980469 512.734375 1720.488281 509.332031 1717.515625 506.863281 C 1714.546875 504.398438 1709.585938 502.15625 1702.625 500.125 C 1695.675781 498.101562 1684.09375 495.28125 1667.878906 491.65625 C 1653.671875 488.46875 1643.386719 483.402344 1637.015625 476.449219 C 1630.640625 469.503906 1627.460938 460.019531 1627.460938 447.988281 C 1627.460938 438.722656 1629.667969 430.472656 1634.078125 423.226562 C 1638.5 415.988281 1645.203125 410.304688 1654.179688 406.171875 C 1663.164062 402.042969 1674.246094 399.976562 1687.433594 399.976562 C 1699.453125 399.976562 1709.984375 402.042969 1719.042969 406.171875 C 1728.09375 410.304688 1735.15625 416.167969 1740.226562 423.769531 C 1745.292969 431.375 1747.976562 440.246094 1748.273438 450.382812 L 1716.988281 450.382812 C 1715.535156 434.746094 1704.890625 426.929688 1685.039062 426.929688 Z M 1685.039062 426.929688 " fill-opacity="1" fill-rule="nonzero"/></svg>