<svg xmlns="http://www.w3.org/2000/svg" xmlns:xlink="http://www.w3.org/1999/xlink" width="2500" zoomAndPan="magnify" viewBox="0 0 1874.88 749.999995" height="1000" preserveAspectRatio="xMidYMid meet" version="1.0"><path fill="#ffffff" d="M 349.613281 517.582031 L 349.613281 561.128906 L 116.164062 561.128906 L 116.164062 197.550781 L 165.285156 197.550781 L 165.285156 517.582031 Z M 349.613281 517.582031 " fill-opacity="1" fill-rule="nonzero"/><path fill="#ffffff" d="M 622.546875 303.890625 L 576.46875 303.890625 C 575.449219 280.597656 566.921875 262.453125 550.886719 249.460938 C 534.855469 236.460938 513.339844 229.957031 486.332031 229.957031 C 459.996094 229.957031 439.570312 235.445312 425.054688 246.421875 C 410.539062 257.390625 403.28125 273.171875 403.28125 293.765625 C 403.28125 318.066406 417.625 333.425781 446.320312 339.84375 L 548.105469 363.132812 C 604.480469 375.960938 632.671875 408.875 632.671875 461.875 C 632.671875 497.667969 619.335938 524.757812 592.671875 543.152344 C 566.003906 561.546875 531.738281 570.746094 489.867188 570.746094 C 442.605469 570.746094 406.398438 560.03125 381.246094 538.601562 C 356.101562 517.164062 343.53125 485.511719 343.53125 443.652344 L 389.609375 443.652344 L 389.609375 444.667969 C 389.609375 470.996094 398.636719 491.589844 416.691406 506.441406 C 434.753906 521.296875 459.148438 528.722656 489.867188 528.722656 C 516.878906 528.722656 539.503906 523.917969 557.734375 514.296875 C 575.960938 504.667969 585.078125 488.882812 585.078125 466.9375 C 585.078125 452.765625 581.953125 441.707031 575.710938 433.773438 C 569.464844 425.84375 560.265625 419.601562 548.105469 415.042969 C 535.953125 410.484375 517.390625 405.335938 492.414062 399.59375 L 431.136719 385.414062 C 405.476562 379.671875 386.484375 369.296875 374.164062 354.273438 C 361.839844 339.253906 355.675781 321.277344 355.675781 300.339844 C 355.675781 278.058594 360.652344 258.480469 370.613281 241.605469 C 380.582031 224.726562 394.933594 211.558594 413.667969 202.105469 C 432.402344 192.652344 454.765625 187.921875 480.761719 187.921875 C 572.246094 187.921875 619.511719 226.578125 622.546875 303.890625 Z M 622.546875 303.890625 " fill-opacity="1" fill-rule="nonzero"/><path fill="#ffffff" d="M 886.324219 324.707031 L 886.324219 343.394531 L 786.152344 343.394531 L 786.152344 187.425781 L 807.21875 187.425781 L 807.21875 324.707031 Z M 886.324219 324.707031 " fill-opacity="1" fill-rule="nonzero"/><path fill="#ffffff" d="M 979.53125 347.519531 C 963.300781 347.519531 949.425781 343.828125 937.90625 336.453125 C 926.398438 329.066406 917.746094 319.140625 911.953125 306.683594 C 906.15625 294.226562 903.261719 280.472656 903.261719 265.410156 C 903.261719 250.351562 906.15625 236.589844 911.953125 224.132812 C 917.746094 211.675781 926.398438 201.757812 937.90625 194.367188 C 949.425781 186.980469 963.226562 183.285156 979.308594 183.285156 C 995.820312 183.285156 1009.796875 187.128906 1021.238281 194.808594 C 1032.691406 202.480469 1041.242188 212.585938 1046.890625 225.117188 C 1052.535156 237.644531 1055.359375 251.078125 1055.359375 265.410156 C 1055.359375 280.324219 1052.421875 294.050781 1046.550781 306.582031 C 1040.683594 319.109375 1032.035156 329.066406 1020.59375 336.453125 C 1009.152344 343.828125 995.460938 347.519531 979.53125 347.519531 Z M 1033.632812 265.410156 C 1033.632812 252.953125 1031.347656 241.914062 1026.789062 232.28125 C 1022.230469 222.652344 1015.816406 215.199219 1007.558594 209.914062 C 999.308594 204.617188 989.816406 201.96875 979.089844 201.96875 C 968.519531 201.96875 959.144531 204.652344 950.960938 210.015625 C 942.777344 215.367188 936.402344 222.824219 931.828125 232.382812 C 927.269531 241.945312 924.988281 252.953125 924.988281 265.410156 C 924.988281 277.867188 927.234375 288.910156 931.726562 298.539062 C 936.21875 308.167969 942.59375 315.625 950.84375 320.90625 C 959.101562 326.191406 968.589844 328.832031 979.308594 328.832031 C 990.027344 328.832031 999.515625 326.160156 1007.777344 320.804688 C 1016.035156 315.441406 1022.410156 307.988281 1026.894531 298.4375 C 1031.382812 288.875 1033.632812 277.867188 1033.632812 265.410156 Z M 1033.632812 265.410156 " fill-opacity="1" fill-rule="nonzero"/><path fill="#ffffff" d="M 1150.527344 201.96875 C 1140.382812 201.96875 1131.472656 204.472656 1123.789062 209.472656 C 1116.117188 214.460938 1110.140625 221.632812 1105.863281 230.972656 C 1101.59375 240.320312 1099.464844 251.289062 1099.464844 263.882812 C 1099.464844 285.460938 1103.84375 301.675781 1112.605469 312.539062 C 1121.371094 323.402344 1134.164062 328.832031 1150.96875 328.832031 C 1162.261719 328.832031 1171.96875 325.03125 1180.082031 317.425781 C 1188.195312 309.824219 1193.410156 299.367188 1195.734375 286.046875 L 1216.15625 286.046875 C 1214.410156 298.789062 1210.421875 309.796875 1204.1875 319.074219 C 1197.960938 328.339844 1190.035156 335.398438 1180.402344 340.253906 C 1170.769531 345.09375 1160.089844 347.519531 1148.355469 347.519531 C 1134.308594 347.519531 1121.960938 344.257812 1111.3125 337.742188 C 1100.660156 331.226562 1092.402344 321.746094 1086.53125 309.296875 C 1080.664062 296.839844 1077.738281 281.992188 1077.738281 264.746094 C 1077.738281 248.535156 1080.707031 234.273438 1086.648438 221.960938 C 1092.589844 209.652344 1101.0625 200.132812 1112.0625 193.398438 C 1123.070312 186.65625 1135.894531 183.285156 1150.527344 183.285156 C 1161.96875 183.285156 1172.289062 185.386719 1181.492188 189.597656 C 1190.691406 193.796875 1198.1875 199.738281 1203.984375 207.417969 C 1209.777344 215.089844 1213.324219 224.0625 1214.625 234.335938 L 1194.207031 234.335938 C 1192.03125 223.914062 1187.175781 215.917969 1179.640625 210.335938 C 1172.113281 204.761719 1162.410156 201.96875 1150.527344 201.96875 Z M 1150.527344 201.96875 " fill-opacity="1" fill-rule="nonzero"/><path fill="#ffffff" d="M 1348.46875 343.394531 L 1333.054688 297.996094 L 1270.464844 297.996094 L 1254.167969 343.394531 L 1232.441406 343.394531 L 1291.105469 187.425781 L 1315.007812 187.425781 L 1371.503906 343.394531 Z M 1325.449219 279.308594 L 1302.414062 210.660156 L 1301.972656 210.660156 L 1276.984375 279.308594 Z M 1325.449219 279.308594 " fill-opacity="1" fill-rule="nonzero"/><path fill="#ffffff" d="M 1495.363281 324.707031 L 1495.363281 343.394531 L 1395.191406 343.394531 L 1395.191406 187.425781 L 1416.257812 187.425781 L 1416.257812 324.707031 Z M 1495.363281 324.707031 " fill-opacity="1" fill-rule="nonzero"/><path fill="#ffffff" d="M 900.007812 449.738281 L 880.230469 449.738281 C 879.796875 439.738281 876.144531 431.953125 869.265625 426.386719 C 862.382812 420.808594 853.148438 418.019531 841.5625 418.019531 C 830.253906 418.019531 821.488281 420.371094 815.265625 425.078125 C 809.039062 429.789062 805.929688 436.558594 805.929688 445.394531 C 805.929688 455.8125 812.082031 462.398438 824.398438 465.148438 L 868.058594 475.144531 C 892.253906 480.65625 904.351562 494.777344 904.351562 517.503906 C 904.351562 532.859375 898.632812 544.484375 887.191406 552.382812 C 875.75 560.265625 861.039062 564.210938 843.070312 564.210938 C 822.789062 564.210938 807.253906 559.621094 796.457031 550.429688 C 785.667969 541.230469 780.28125 527.648438 780.28125 509.679688 L 800.054688 509.679688 L 800.054688 510.121094 C 800.054688 521.417969 803.929688 530.25 811.683594 536.632812 C 819.433594 543.003906 829.898438 546.1875 843.070312 546.1875 C 854.65625 546.1875 864.363281 544.125 872.183594 539.992188 C 880.015625 535.863281 883.933594 529.09375 883.933594 519.675781 C 883.933594 513.601562 882.589844 508.863281 879.910156 505.457031 C 877.226562 502.050781 873.277344 499.371094 868.058594 497.410156 C 862.851562 495.453125 854.886719 493.25 844.160156 490.792969 L 817.878906 484.699219 C 806.867188 482.246094 798.714844 477.800781 793.417969 471.359375 C 788.128906 464.910156 785.492188 457.195312 785.492188 448.210938 C 785.492188 438.652344 787.628906 430.25 791.90625 423.007812 C 796.1875 415.769531 802.339844 410.121094 810.378906 406.070312 C 818.410156 402.007812 828.007812 399.976562 839.167969 399.976562 C 878.421875 399.976562 898.703125 416.566406 900.007812 449.738281 Z M 900.007812 449.738281 " fill-opacity="1" fill-rule="nonzero"/><path fill="#ffffff" d="M 995.824219 422.785156 L 995.824219 560.085938 L 974.757812 560.085938 L 974.757812 422.785156 L 921.945312 422.785156 L 921.945312 404.117188 L 1048.632812 404.117188 L 1048.632812 422.785156 Z M 995.824219 422.785156 " fill-opacity="1" fill-rule="nonzero"/><path fill="#ffffff" d="M 1133.792969 545.523438 C 1146.695312 545.523438 1156.765625 541.839844 1164.007812 534.460938 C 1171.25 527.074219 1174.875 516.789062 1174.875 503.605469 L 1174.875 404.117188 L 1195.941406 404.117188 L 1195.941406 504.914062 C 1195.941406 516.5 1193.546875 526.746094 1188.757812 535.648438 C 1183.980469 544.554688 1176.886719 551.542969 1167.472656 556.609375 C 1158.054688 561.671875 1146.613281 564.210938 1133.148438 564.210938 C 1120.539062 564.210938 1109.742188 561.820312 1100.757812 557.050781 C 1091.78125 552.261719 1084.941406 545.640625 1080.234375 537.175781 C 1075.523438 528.703125 1073.171875 518.960938 1073.171875 507.949219 L 1073.171875 404.117188 L 1094.257812 404.117188 L 1094.257812 503.164062 C 1094.257812 516.496094 1097.65625 526.886719 1104.460938 534.339844 C 1111.269531 541.800781 1121.046875 545.523438 1133.792969 545.523438 Z M 1133.792969 545.523438 " fill-opacity="1" fill-rule="nonzero"/><path fill="#ffffff" d="M 1363.679688 479.488281 C 1363.679688 494.84375 1361.144531 508.640625 1356.074219 520.882812 C 1351.003906 533.113281 1343.582031 542.707031 1333.804688 549.667969 C 1324.027344 556.617188 1312.183594 560.085938 1298.273438 560.085938 L 1234.835938 560.085938 L 1234.835938 404.117188 L 1298.496094 404.117188 C 1310.808594 404.117188 1321.886719 407.050781 1331.734375 412.910156 C 1341.585938 418.773438 1349.375 427.386719 1355.089844 438.757812 C 1360.816406 450.128906 1363.679688 463.707031 1363.679688 479.488281 Z M 1297.410156 542.0625 C 1306.101562 542.0625 1313.8125 539.785156 1320.546875 535.222656 C 1327.289062 530.652344 1332.539062 523.808594 1336.300781 514.6875 C 1340.066406 505.558594 1341.953125 494.40625 1341.953125 481.238281 C 1341.953125 461.6875 1337.785156 446.949219 1329.457031 437.027344 C 1321.128906 427.105469 1309.792969 422.140625 1295.457031 422.140625 L 1255.902344 422.140625 L 1255.902344 542.0625 Z M 1297.410156 542.0625 " fill-opacity="1" fill-rule="nonzero"/><path fill="#ffffff" d="M 1398.230469 404.117188 L 1419.296875 404.117188 L 1419.296875 560.085938 L 1398.230469 560.085938 Z M 1398.230469 404.117188 " fill-opacity="1" fill-rule="nonzero"/><path fill="#ffffff" d="M 1527.945312 564.210938 C 1511.71875 564.210938 1497.839844 560.519531 1486.324219 553.144531 C 1474.8125 545.757812 1466.160156 535.835938 1460.367188 523.378906 C 1454.570312 510.921875 1451.675781 497.164062 1451.675781 482.101562 C 1451.675781 467.042969 1454.570312 453.285156 1460.367188 440.828125 C 1466.160156 428.371094 1474.8125 418.449219 1486.324219 411.058594 C 1497.839844 403.671875 1511.640625 399.976562 1527.726562 399.976562 C 1544.234375 399.976562 1558.214844 403.820312 1569.65625 411.5 C 1581.105469 419.171875 1589.65625 429.277344 1595.304688 441.8125 C 1600.949219 454.335938 1603.777344 467.769531 1603.777344 482.101562 C 1603.777344 497.015625 1600.839844 510.742188 1594.964844 523.277344 C 1589.101562 535.800781 1580.453125 545.757812 1569.011719 553.144531 C 1557.570312 560.519531 1543.878906 564.210938 1527.945312 564.210938 Z M 1582.046875 482.101562 C 1582.046875 469.644531 1579.765625 458.605469 1575.207031 448.972656 C 1570.644531 439.347656 1564.230469 431.890625 1555.972656 426.605469 C 1547.722656 421.308594 1538.234375 418.664062 1527.503906 418.664062 C 1516.933594 418.664062 1507.558594 421.34375 1499.378906 426.707031 C 1491.195312 432.0625 1484.816406 439.515625 1480.246094 449.074219 C 1475.683594 458.640625 1473.40625 469.644531 1473.40625 482.101562 C 1473.40625 494.558594 1475.648438 505.605469 1480.144531 515.230469 C 1484.632812 524.863281 1491.007812 532.316406 1499.257812 537.597656 C 1507.515625 542.886719 1517.007812 545.523438 1527.726562 545.523438 C 1538.441406 545.523438 1547.929688 542.851562 1556.195312 537.496094 C 1564.453125 532.132812 1570.828125 524.679688 1575.308594 515.128906 C 1579.796875 505.570312 1582.046875 494.558594 1582.046875 482.101562 Z M 1582.046875 482.101562 " fill-opacity="1" fill-rule="nonzero"/><path fill="#ffffff" d="M 1746.964844 449.738281 L 1727.191406 449.738281 C 1726.757812 439.738281 1723.101562 431.953125 1716.222656 426.386719 C 1709.339844 420.808594 1700.105469 418.019531 1688.519531 418.019531 C 1677.214844 418.019531 1668.445312 420.371094 1662.226562 425.078125 C 1656 429.789062 1652.886719 436.558594 1652.886719 445.394531 C 1652.886719 455.8125 1659.042969 462.398438 1671.359375 465.148438 L 1715.019531 475.144531 C 1739.214844 480.65625 1751.3125 494.777344 1751.3125 517.503906 C 1751.3125 532.859375 1745.589844 544.484375 1734.148438 552.382812 C 1722.707031 560.265625 1708 564.210938 1690.03125 564.210938 C 1669.75 564.210938 1654.210938 559.621094 1643.417969 550.429688 C 1632.628906 541.230469 1627.238281 527.648438 1627.238281 509.679688 L 1647.015625 509.679688 L 1647.015625 510.121094 C 1647.015625 521.417969 1650.890625 530.25 1658.644531 536.632812 C 1666.394531 543.003906 1676.859375 546.1875 1690.03125 546.1875 C 1701.617188 546.1875 1711.324219 544.125 1719.144531 539.992188 C 1726.972656 535.863281 1730.890625 529.09375 1730.890625 519.675781 C 1730.890625 513.601562 1729.550781 508.863281 1726.867188 505.457031 C 1724.1875 502.050781 1720.234375 499.371094 1715.019531 497.410156 C 1709.8125 495.453125 1701.847656 493.25 1691.117188 490.792969 L 1664.839844 484.699219 C 1653.828125 482.246094 1645.675781 477.800781 1640.378906 471.359375 C 1635.089844 464.910156 1632.449219 457.195312 1632.449219 448.210938 C 1632.449219 438.652344 1634.589844 430.25 1638.867188 423.007812 C 1643.144531 415.769531 1649.296875 410.121094 1657.335938 406.070312 C 1665.371094 402.007812 1674.964844 399.976562 1686.125 399.976562 C 1725.382812 399.976562 1745.664062 416.566406 1746.964844 449.738281 Z M 1746.964844 449.738281 " fill-opacity="1" fill-rule="nonzero"/></svg>